<?xml version="1.0" standalone="no"?>
<!DOCTYPE svg PUBLIC "-//W3C//DTD SVG 20010904//EN"
 "http://www.w3.org/TR/2001/REC-SVG-20010904/DTD/svg10.dtd">
<svg version="1.0" xmlns="http://www.w3.org/2000/svg"
 width="966.000000pt" height="564.000000pt" viewBox="0 0 966.000000 564.000000"
 preserveAspectRatio="xMidYMid meet">

<g transform="translate(0.000000,564.000000) scale(0.100000,-0.100000)"
fill="#000000" stroke="none">
<path d="M130 5571 c-19 -10 -45 -36 -57 -57 l-23 -39 0 -2296 0 -2296 22 -33
c47 -68 64 -75 220 -78 159 -4 184 0 193 28 3 11 11 20 17 20 6 0 9 -3 5 -6
-13 -13 20 -31 70 -38 45 -6 52 -4 58 13 4 13 12 17 25 14 12 -3 20 0 20 6 0
7 -5 9 -10 6 -6 -4 -3 10 7 30 15 31 15 37 3 46 -11 8 -8 8 10 3 29 -8 40 -22
33 -41 -4 -11 -8 -12 -13 -3 -6 9 -9 9 -15 0 -4 -7 0 -19 10 -28 10 -10 14
-11 10 -3 -5 9 1 8 18 -4 15 -9 31 -14 36 -11 5 4 14 -2 20 -11 9 -16 31 -18
211 -21 l202 -4 -7 34 c-4 18 -18 59 -33 91 -20 45 -33 61 -59 72 -18 8 -33
21 -33 29 0 9 -4 16 -10 16 -5 0 -10 -11 -10 -25 0 -36 -30 -33 -31 3 l-1 27
-10 -28 c-12 -34 -39 -32 -49 3 -7 25 -7 25 -8 -3 -1 -20 -6 -28 -17 -25 -11
2 -16 19 -19 65 l-4 63 29 0 c21 0 31 -6 36 -22 7 -22 7 -22 14 -3 11 30 4 35
-50 35 -39 0 -52 4 -64 22 l-16 22 0 -22 c0 -15 -6 -22 -20 -22 -18 0 -20 7
-20 60 l0 60 40 0 c27 0 45 -6 59 -21 17 -19 19 -19 18 -3 -1 10 6 20 16 22
15 3 17 -5 18 -55 l1 -58 21 57 c28 73 53 78 82 15 l19 -42 4 44 c3 43 4 43
35 37 38 -8 64 -35 44 -48 -8 -6 -6 -8 8 -6 11 2 19 -2 18 -9 -2 -7 4 -10 12
-7 8 4 15 11 15 17 0 6 -3 7 -7 4 -9 -10 -33 13 -33 32 0 14 2 14 10 1 8 -13
10 -13 10 1 0 9 7 16 15 16 8 0 15 -7 15 -15 0 -11 3 -12 14 -3 18 15 28 1 26
-37 -1 -15 -2 -109 -1 -209 l1 -183 299 0 c250 0 300 2 304 14 3 8 1 17 -6 20
-7 2 2 5 19 5 19 1 34 -5 37 -13 7 -19 -8 -18 335 -23 l292 -4 0 34 c0 19 -11
59 -24 89 l-24 54 24 11 c18 8 26 8 35 -3 6 -8 20 -14 30 -14 11 0 19 -7 19
-15 0 -8 5 -15 12 -15 7 0 5 -5 -4 -12 -12 -10 -15 -25 -11 -70 l5 -58 50 0
50 0 -20 33 c-27 45 -37 103 -18 110 8 3 22 -3 32 -14 9 -10 23 -19 31 -19 7
0 13 -7 13 -16 0 -8 7 -22 15 -30 8 -8 21 -24 29 -35 18 -26 94 -39 107 -18
12 20 11 59 -2 59 -6 0 -29 13 -52 29 -23 15 -49 26 -57 24 -8 -2 -2 7 13 21
15 14 33 26 40 26 6 0 1 -7 -12 -16 l-24 -17 24 -13 c36 -20 52 -17 46 6 -8
29 7 24 24 -8 8 -15 20 -32 28 -38 10 -8 12 -21 8 -43 -7 -34 8 -49 38 -38 11
5 12 12 4 37 -6 16 -15 30 -20 30 -5 0 -9 11 -9 25 0 14 -5 24 -11 22 -7 -1
-15 10 -20 26 -7 25 -4 29 31 47 22 11 41 20 44 20 2 0 7 -13 11 -29 5 -24 12
-30 42 -33 41 -5 66 14 61 46 -2 15 -9 20 -23 18 -15 -2 -12 4 15 27 39 34 50
38 50 17 0 -9 27 -22 70 -35 l70 -22 0 -99 0 -100 108 1 c59 1 116 4 127 7 31
11 27 41 -12 81 -41 42 -63 90 -63 137 0 40 16 53 24 19 4 -14 11 -25 16 -25
6 0 20 -11 31 -25 30 -33 70 -40 111 -19 18 9 37 23 41 30 22 38 40 -2 41 -89
1 -57 1 -57 -31 -63 -37 -7 -40 -15 -17 -38 12 -12 37 -16 103 -16 l87 0 17
47 c9 27 18 64 19 83 1 19 4 39 7 45 3 5 6 16 7 25 2 8 10 47 19 85 9 39 18
79 20 89 10 47 27 85 45 101 11 10 20 14 20 10 0 -5 14 4 32 21 l31 29 -41
-76 c-49 -88 -52 -103 -16 -60 40 48 48 40 39 -37 -4 -37 -9 -97 -10 -133 -1
-37 -6 -73 -10 -80 -6 -11 -5 -11 4 -3 7 7 19 44 26 83 16 82 40 133 31 66 -3
-25 -2 -34 3 -25 5 8 11 38 14 65 5 53 37 155 49 155 9 0 16 -73 23 -241 5
-113 4 -142 -10 -177 -10 -23 -21 -40 -25 -37 -4 3 -10 -1 -13 -9 -4 -10 6
-16 33 -20 53 -8 67 -1 63 32 -6 38 18 102 45 120 l22 14 0 -86 0 -86 105 0
105 0 0 40 c0 38 2 40 30 40 28 0 30 -2 30 -40 l0 -40 54 0 55 0 3 38 c3 32 7
37 31 40 26 3 27 1 27 -37 0 -39 2 -41 30 -41 28 0 30 2 30 40 l0 40 75 0 75
0 0 -31 0 -31 -45 6 c-37 6 -45 4 -45 -8 0 -13 13 -16 70 -16 l70 0 0 40 0 40
75 0 75 0 0 -30 c0 -29 -2 -30 -45 -30 -25 0 -45 -5 -45 -10 0 -7 83 -10 240
-10 l240 1 0 23 c0 13 -7 29 -15 36 -9 8 -11 17 -5 28 5 10 11 25 14 36 5 14
9 16 20 7 12 -10 16 -5 26 26 7 21 17 44 23 51 16 20 1 25 -18 5 -13 -12 -16
-13 -12 -3 4 8 10 23 13 33 4 10 12 16 19 13 14 -5 25 14 25 42 0 8 7 24 17
34 11 12 12 18 4 18 -9 0 -11 12 -7 41 7 51 14 63 30 50 13 -11 61 -9 73 3 4
4 15 -3 24 -15 16 -21 16 -24 -2 -49 -19 -25 -29 -94 -15 -107 4 -4 21 -8 39
-8 25 -1 31 -5 29 -19 -2 -12 1 -15 8 -11 7 4 9 16 7 27 -5 16 -2 19 14 15 10
-3 21 -1 24 4 3 4 12 6 20 3 26 -10 29 25 6 57 -12 16 -19 34 -15 40 3 6 -2
19 -12 30 -16 18 -16 20 1 39 11 12 21 16 25 11 3 -6 21 -17 40 -25 31 -12 36
-12 48 3 12 14 12 14 7 -6 -5 -17 -2 -23 9 -23 9 0 16 -4 16 -10 0 -5 9 -10
19 -10 11 0 23 -4 26 -10 3 -5 0 -7 -9 -4 -19 7 -76 -23 -76 -41 0 -19 17 -28
23 -13 3 7 6 3 6 -9 1 -15 6 -21 15 -17 20 8 31 -15 28 -56 -2 -26 0 -31 7
-20 8 12 12 10 20 -10 6 -14 15 -32 20 -40 4 -8 16 -32 26 -52 17 -35 17 -39
1 -63 -33 -51 -21 -55 149 -55 148 0 155 1 155 20 0 12 7 20 17 20 13 0 14 -3
5 -12 -21 -21 -13 -29 26 -26 32 3 37 7 40 29 2 15 -4 43 -12 63 -11 27 -19
34 -32 29 -13 -5 -16 -3 -11 10 9 24 -14 22 -41 -3 -17 -16 -20 -25 -13 -39 7
-13 5 -22 -9 -33 -22 -20 -30 -14 -30 24 0 19 5 28 16 28 11 0 14 5 10 16 -3
9 -6 18 -6 20 0 3 -4 3 -9 0 -4 -3 -9 24 -9 59 -1 36 3 65 8 65 10 0 25 39 22
58 -2 6 2 12 8 12 5 0 10 7 10 15 0 8 5 15 10 15 13 0 13 -17 1 -25 -12 -7 -5
-49 9 -53 5 -2 10 -8 10 -14 0 -5 -9 -6 -21 -3 -16 5 -20 3 -17 -6 3 -8 11
-14 19 -14 8 0 13 -9 12 -23 -3 -26 12 -29 25 -6 9 16 12 15 35 -2 15 -10 27
-25 27 -32 0 -7 4 -11 9 -8 15 9 1 45 -15 39 -8 -3 -14 0 -14 6 0 6 9 11 20
11 11 0 20 5 20 10 0 6 6 10 14 10 7 0 19 6 25 14 9 11 7 15 -9 19 -11 3 -20
9 -19 14 1 4 1 21 0 37 -1 23 -5 27 -21 23 -11 -3 -20 -2 -20 3 0 4 15 10 33
14 28 6 35 3 60 -29 l29 -35 19 23 c20 22 20 22 10 0 -14 -27 -14 -117 -1
-161 8 -29 7 -33 -6 -28 -13 5 -14 0 -8 -27 8 -37 7 -94 -2 -108 -3 -6 -12 -2
-21 11 -8 12 -21 19 -27 17 -7 -3 -19 -1 -27 3 -15 10 -29 -5 -29 -32 0 -11 8
-18 20 -18 12 0 20 7 20 18 0 14 2 15 10 2 7 -12 35 -15 135 -16 122 -2 131 0
126 29 -1 5 3 6 9 2 5 -3 10 -12 10 -20 0 -11 55 -13 309 -14 l310 -1 3 42 3
42 19 -28 c10 -16 13 -25 7 -22 -7 4 -11 -1 -11 -12 0 -16 8 -19 55 -20 60 0
59 -1 69 43 l7 29 -23 -19 c-13 -11 -17 -13 -10 -5 15 18 16 62 0 78 -9 9 -9
12 1 12 7 0 15 -9 18 -20 3 -11 9 -18 13 -15 4 2 13 -8 21 -23 14 -26 14 -25
17 38 2 39 -1 66 -7 68 -13 4 -15 32 -2 32 5 0 9 29 9 65 0 54 -2 65 -16 65
-13 0 -17 10 -19 45 -3 80 -18 77 -82 -13 -20 -28 -21 -37 -12 -64 16 -44 14
-68 -5 -68 -13 0 -15 8 -12 35 2 19 1 35 -3 35 -9 0 -24 -89 -16 -96 3 -3 1
-18 -4 -34 -11 -31 -49 -49 -49 -23 0 9 6 13 15 10 8 -4 17 -2 20 3 4 6 -10
10 -32 11 -21 0 -32 3 -25 6 6 2 12 11 12 19 0 8 7 14 16 14 13 0 15 6 10 28
-5 19 -4 23 3 12 12 -18 14 -15 29 37 18 60 70 132 125 173 l47 35 0 1420 c0
1363 1 1422 19 1455 10 19 30 44 45 55 27 19 43 20 502 23 l474 3 0 617 0 617
-23 39 c-12 21 -38 47 -57 57 -34 18 -165 19 -4265 19 -4100 0 -4231 -1 -4265
-19z m7891 -82 c15 -15 20 -29 15 -50 -3 -15 -1 -31 4 -34 6 -3 10 -11 10 -17
0 -7 -5 -6 -15 2 -8 7 -25 10 -38 6 -57 -14 -93 65 -45 98 30 21 44 20 69 -5z
m287 -46 l-3 -68 -67 -3 -68 -3 0 71 0 70 70 0 71 0 -3 -67z m-6748 17 c7 12
10 8 10 -15 0 -23 -3 -27 -10 -15 -9 13 -11 13 -20 0 -7 -12 -10 -8 -10 15 0
23 3 27 10 15 9 -13 11 -13 20 0z m337 -10 c3 -10 2 -11 -4 -4 -4 7 -19 14
-33 17 -22 4 -21 5 4 4 17 -1 31 -9 33 -17z m33 12 c0 -5 -7 -17 -15 -28 -14
-18 -14 -17 -4 9 12 27 19 34 19 19z m54 2 c18 -7 22 -44 6 -44 -6 0 -10 7 -8
16 2 10 -4 19 -12 21 -13 4 -13 3 0 -6 13 -9 13 -11 -2 -11 -10 0 -18 7 -18
15 0 16 9 19 34 9z m316 -24 c12 -23 12 -24 -3 -11 -10 7 -17 20 -17 29 0 18
3 16 20 -18z m30 3 c-1 -24 -2 -26 -11 -10 -5 9 -7 22 -4 27 10 17 15 11 15
-17z m317 21 c-3 -3 -12 -4 -19 -1 -8 3 -5 6 6 6 11 1 17 -2 13 -5z m316 -5
c9 6 12 2 12 -14 0 -16 -3 -20 -12 -14 -7 7 -13 5 -16 -3 -3 -7 -5 1 -5 17 0
17 2 24 5 17 3 -8 9 -10 16 -3z m74 -26 c-3 -10 -5 -4 -5 12 0 17 2 24 5 18 2
-7 2 -21 0 -30z m179 -10 c-8 -8 -12 -3 -21 27 l-7 25 17 -23 c9 -13 14 -26
11 -29z m30 0 c-8 -8 -12 -3 -21 27 l-7 25 17 -23 c9 -13 14 -26 11 -29z m174
10 c0 -7 -4 -13 -10 -13 -5 0 -10 12 -10 28 0 21 2 24 10 12 5 -8 10 -21 10
-27z m-2408 12 c0 -5 -5 -11 -11 -13 -6 -2 -11 4 -11 13 0 9 5 15 11 13 6 -2
11 -8 11 -13z m2295 -17 c-3 -7 -5 -2 -5 12 0 14 2 19 5 13 2 -7 2 -19 0 -25z
m60 0 c-3 -7 -5 -2 -5 12 0 14 2 19 5 13 2 -7 2 -19 0 -25z m5093 17 c-12 -15
-30 -12 -30 6 0 5 10 9 21 9 18 0 19 -2 9 -15z m-6780 -12 c0 -15 -2 -16 -10
-3 -9 13 -10 13 -10 0 0 -13 -1 -13 -10 0 -6 10 -10 11 -10 3 0 -8 -13 -13
-30 -13 -20 0 -30 5 -30 15 0 11 12 15 50 15 41 0 50 -3 50 -17z m40 0 c0 -7
-7 -13 -15 -13 -8 0 -15 6 -15 13 0 8 7 14 15 14 8 0 15 -6 15 -14z m315 8 c3
-5 1 -12 -5 -16 -5 -3 -10 1 -10 9 0 18 6 21 15 7z m125 -6 c0 -7 -7 -12 -15
-12 -8 0 -12 4 -9 9 3 4 0 8 -5 8 -6 0 -11 -4 -11 -8 0 -4 -9 -8 -20 -8 -11 0
-20 5 -20 11 0 5 -5 3 -10 -5 -8 -13 -10 -13 -10 1 0 13 10 16 50 15 30 0 50
-5 50 -11z m260 0 c0 -8 -2 -15 -4 -15 -2 0 -6 7 -10 15 -3 8 -1 15 4 15 6 0
10 -7 10 -15z m40 4 c0 -4 -7 -9 -15 -13 -9 -3 -15 0 -15 8 0 7 7 13 15 13 8
0 15 -4 15 -8z m40 -4 c0 -6 -6 -12 -13 -12 -8 0 -14 6 -14 12 0 6 6 12 14 12
7 0 13 -6 13 -12z m145 4 c11 -16 1 -19 -13 -3 -7 8 -8 14 -3 14 5 0 13 -5 16
-11z m22 -26 c-3 -10 -5 -4 -5 12 0 17 2 24 5 18 2 -7 2 -21 0 -30z m43 22 c0
-8 -4 -15 -10 -15 -5 0 -10 7 -10 15 0 8 5 15 10 15 6 0 10 -7 10 -15z m27 -7
c-3 -8 -6 -5 -6 6 -1 11 2 17 5 13 3 -3 4 -12 1 -19z m78 4 c-3 -3 -11 0 -18
7 -9 10 -8 11 6 5 10 -3 15 -9 12 -12z m195 3 c0 -8 -4 -15 -10 -15 -5 0 -10
7 -10 15 0 8 5 15 10 15 6 0 10 -7 10 -15z m277 -7 c-3 -8 -6 -5 -6 6 -1 11 2
17 5 13 3 -3 4 -12 1 -19z m40 0 c-3 -8 -6 -5 -6 6 -1 11 2 17 5 13 3 -3 4
-12 1 -19z m60 0 c-3 -8 -6 -5 -6 6 -1 11 2 17 5 13 3 -3 4 -12 1 -19z m64 5
c13 -16 12 -17 -3 -4 -10 7 -18 15 -18 17 0 8 8 3 21 -13z m-1056 -3 c3 -5 1
-10 -4 -10 -6 0 -11 5 -11 10 0 6 2 10 4 10 3 0 8 -4 11 -10z m680 0 c3 -6 -1
-7 -9 -4 -18 7 -21 14 -7 14 6 0 13 -4 16 -10z m-2465 -36 c0 -8 -7 -14 -15
-14 -17 0 -18 2 -9 24 7 18 24 12 24 -10z m7480 -398 c0 -3 -4 -8 -10 -11 -5
-3 -10 -1 -10 4 0 6 5 11 10 11 6 0 10 -2 10 -4z m18 -126 c18 -39 28 -81 33
-145 4 -49 12 -106 18 -125 16 -50 14 -60 -10 -60 -32 0 -79 -53 -79 -89 0
-16 6 -34 13 -38 7 -4 18 -35 24 -68 6 -33 15 -69 19 -79 5 -13 4 -17 -4 -12
-6 4 -16 26 -22 49 -6 23 -22 71 -36 106 -23 58 -24 69 -13 113 14 59 7 72
-16 29 -8 -17 -17 -31 -18 -31 -5 0 2 85 10 130 l8 45 24 -39 c14 -22 27 -34
29 -28 2 7 8 10 13 6 11 -6 7 25 -6 46 -5 8 -11 24 -12 35 -7 57 -14 132 -14
148 0 9 -3 16 -7 13 -4 -2 -7 16 -7 40 0 40 1 43 13 27 8 -10 26 -43 40 -73z
m-308 -374 c0 -8 -4 -18 -10 -21 -5 -3 -10 3 -10 14 0 12 5 21 10 21 6 0 10
-6 10 -14z m347 -63 c-16 -16 -17 -16 -17 3 0 11 3 24 7 28 4 3 11 2 17 -4 7
-7 5 -16 -7 -27z m-539 -935 c-8 -13 -24 -40 -37 -61 -12 -20 -27 -35 -32 -31
-5 3 -2 12 6 20 8 9 15 19 15 24 0 10 49 70 57 70 3 0 -1 -10 -9 -22z m-6346
-118 c23 0 78 -52 78 -74 0 -21 -63 -22 -80 -1 -17 20 -59 19 -82 -2 -23 -20
-24 -80 -1 -105 20 -22 66 -24 83 -3 10 13 9 15 -9 15 -17 0 -21 6 -21 30 l0
30 60 0 60 0 0 -75 c0 -72 -1 -75 -24 -75 -13 0 -27 7 -30 16 -6 16 -8 16 -24
0 -12 -10 -36 -16 -66 -16 -41 0 -53 5 -81 33 -45 45 -54 102 -26 161 21 42
42 58 96 69 11 3 26 3 33 1 8 -2 23 -4 34 -4z m-714 -32 c-3 -30 -6 -33 -40
-36 l-38 -3 0 -95 0 -94 -35 0 -35 0 0 94 0 95 -37 3 c-35 3 -38 6 -41 36 l-3
32 116 0 116 0 -3 -32z m82 -8 l0 -40 43 6 c67 9 81 -8 85 -105 l4 -81 -36 0
-36 0 0 64 c0 47 -4 65 -15 70 -27 10 -45 -22 -45 -80 0 -53 0 -54 -30 -54
l-30 0 0 130 0 130 30 0 c28 0 30 -2 30 -40z m1519 -27 c8 -35 17 -63 21 -63
4 0 13 28 21 63 l14 62 58 3 57 3 0 -131 0 -130 -35 0 -35 0 -1 88 0 87 -14
-45 c-7 -25 -19 -64 -25 -87 -9 -38 -14 -43 -40 -43 -26 0 -30 5 -45 58 -31
111 -33 112 -34 25 l-1 -83 -35 0 -35 0 0 130 0 131 57 -3 58 -3 14 -62z
m-1218 -13 c20 -11 49 -60 49 -84 0 -12 -15 -16 -67 -18 -41 -2 -66 -7 -63
-13 3 -5 31 -9 63 -7 63 3 71 -6 31 -37 -40 -32 -103 -28 -137 7 -37 38 -38
102 -2 137 26 27 89 34 126 15z m509 -2 c0 -9 3 -9 12 0 7 7 22 12 35 12 19 0
23 -5 23 -30 0 -25 -4 -30 -25 -30 -31 0 -45 -26 -45 -84 0 -44 -1 -46 -30
-46 l-30 0 0 95 0 95 30 0 c17 0 30 -5 30 -12z m243 -5 c10 -12 16 -43 19 -96
l3 -77 -32 0 c-19 0 -33 5 -33 12 0 9 -3 9 -12 0 -17 -17 -78 -15 -100 5 -42
38 -12 86 60 98 26 4 42 12 42 21 0 16 -26 19 -35 4 -10 -16 -75 -12 -75 4 0
43 130 65 163 29z m107 -38 c7 -31 16 -58 20 -60 3 -2 12 23 19 56 13 58 14
59 47 59 19 0 34 -2 34 -5 0 -3 -16 -53 -36 -110 -40 -116 -64 -145 -120 -145
-29 0 -34 3 -34 24 0 15 7 26 20 29 26 7 25 31 -5 115 -14 38 -25 75 -25 81 0
6 15 11 33 11 33 0 34 -2 47 -55z m722 38 c14 -13 18 -31 18 -95 l0 -78 -30 0
c-17 0 -30 5 -30 12 0 9 -3 9 -12 0 -17 -17 -84 -15 -102 4 -20 19 -21 58 -1
77 7 8 34 18 60 21 44 7 56 18 34 32 -6 3 -16 1 -22 -5 -17 -17 -77 -14 -77 3
0 42 123 64 162 29z m108 7 c0 -7 6 -7 19 0 29 15 67 12 85 -6 12 -11 16 -36
16 -95 l0 -79 -30 0 c-30 0 -30 0 -30 58 0 65 -13 87 -42 71 -14 -8 -18 -22
-18 -69 0 -60 0 -60 -30 -60 l-30 0 0 95 0 95 30 0 c17 0 30 -5 30 -10z
m-2247 -378 c-6 -4 -13 -21 -16 -37 l-4 -30 -2 32 c0 21 -7 33 -18 36 -10 3
-2 5 17 6 19 0 30 -3 23 -7z m50 -15 c9 -4 17 -16 16 -29 l0 -23 -9 23 c-5 12
-14 22 -19 22 -5 0 -12 -10 -14 -22 -2 -13 -5 -6 -5 17 -1 22 2 35 6 29 4 -6
15 -13 25 -17z m1182 6 c-2 -10 -4 -27 -5 -38 -2 -17 -3 -16 -9 5 -8 27 -4 50
9 50 5 0 7 -8 5 -17z m580 0 c-2 -10 -4 -27 -5 -38 -2 -17 -3 -16 -9 5 -8 27
-4 50 9 50 5 0 7 -8 5 -17z m61 -43 c8 0 14 -4 14 -10 0 -5 -9 -10 -20 -10
-17 0 -20 6 -18 43 1 36 2 38 5 10 3 -20 10 -33 19 -33z m291 8 c-2 -13 -4 -5
-4 17 -1 22 1 32 4 23 2 -10 2 -28 0 -40z m490 0 c-2 -13 -4 -5 -4 17 -1 22 1
32 4 23 2 -10 2 -28 0 -40z m140 0 c-2 -13 -4 -5 -4 17 -1 22 1 32 4 23 2 -10
2 -28 0 -40z m346 29 c9 -4 17 -16 16 -29 l0 -23 -9 23 c-5 12 -14 22 -19 22
-5 0 -12 -10 -14 -22 -2 -13 -5 -6 -5 17 -1 22 2 35 6 29 4 -6 15 -13 25 -17z
m-2209 7 c10 -4 16 -17 15 -33 l-1 -26 -8 25 -8 25 -1 -28 c-1 -37 -21 -25
-21 14 0 31 1 32 24 23z m1843 -21 c8 -20 -20 -45 -40 -37 -10 4 -17 17 -17
34 0 24 3 27 26 22 14 -2 28 -11 31 -19z m171 6 c2 -4 10 -5 18 -2 10 3 14 -2
14 -18 0 -26 15 -16 23 16 4 16 5 14 6 -6 1 -29 -20 -44 -37 -27 -8 8 -16 7
-29 -3 -16 -13 -17 -12 -5 3 8 9 11 22 7 28 -10 17 -25 11 -25 -10 0 -11 -4
-20 -10 -20 -5 0 -10 14 -10 31 0 27 3 30 23 23 12 -3 23 -10 25 -15z m94 -16
l-6 -28 -6 25 c-7 27 -3 43 9 35 5 -2 6 -17 3 -32z m53 -3 c2 -16 -1 -28 -5
-25 -10 6 -19 53 -12 60 9 9 15 -3 17 -35z m-2971 15 c4 -10 -1 -15 -14 -15
-11 0 -20 -5 -20 -11 0 -6 7 -8 18 -4 13 5 14 3 5 -6 -14 -14 -33 -3 -33 20 0
32 33 44 44 16z m28 -10 c-2 -14 -6 -25 -8 -25 -2 0 -4 11 -4 25 0 14 4 25 9
25 4 0 6 -11 3 -25z m66 8 c2 -8 -5 -13 -18 -13 -12 0 -18 -4 -15 -10 4 -6 12
-7 18 -4 9 5 9 4 0 -6 -6 -7 -16 -9 -22 -6 -12 8 -15 39 -4 50 10 10 36 3 41
-11z m71 -10 c0 -16 -3 -22 -6 -15 -2 6 -9 12 -15 12 -6 0 -7 -7 -4 -16 3 -8
2 -13 -3 -10 -5 3 -8 17 -8 31 0 18 5 25 18 25 14 0 19 -7 18 -27z m33 2 c-2
-14 -8 -25 -13 -25 -10 0 -12 34 -2 43 13 14 20 6 15 -18z m66 8 c2 -8 -5 -13
-17 -13 -12 0 -21 -5 -21 -11 0 -6 7 -8 18 -4 13 5 14 3 5 -6 -6 -6 -16 -8
-22 -5 -12 8 -15 39 -4 50 10 10 36 3 41 -11z m107 -3 c4 -11 10 -18 15 -15 5
3 7 12 3 20 -3 10 2 15 16 15 15 0 21 -6 21 -24 0 -42 -65 -44 -73 -2 -3 20
-4 20 -15 -4 -10 -24 -11 -24 -11 -2 -1 12 -5 22 -10 22 -5 0 -12 -10 -14 -22
-4 -20 -4 -19 -6 5 -1 24 2 27 33 27 26 0 36 -5 41 -20z m135 -5 c7 -19 7 -19
14 3 5 13 10 21 12 19 6 -6 -23 -77 -31 -77 -3 0 -4 4 0 10 3 5 2 22 -2 37
l-7 28 -7 -25 c-7 -24 -7 -24 -8 -2 -1 12 -6 22 -11 22 -6 0 -15 -10 -20 -22
-8 -22 -9 -22 -9 5 -1 25 2 27 30 25 21 -2 34 -9 39 -23z m80 -5 c4 0 10 6 13
13 2 7 16 13 30 15 19 1 26 -4 29 -23 3 -15 0 -26 -9 -30 -20 -7 -36 4 -29 21
3 7 1 16 -4 19 -5 3 -11 -4 -15 -15 -3 -11 -10 -20 -15 -20 -9 0 -21 26 -19
43 1 7 3 4 6 -5 2 -10 8 -18 13 -18z m146 4 c13 -15 25 -21 29 -15 3 6 0 11
-7 11 -10 0 -9 3 2 11 13 9 12 10 -2 5 -10 -3 -18 -1 -18 5 0 6 8 9 18 7 21
-4 28 -43 8 -51 -24 -10 -56 4 -56 24 0 27 -18 24 -23 -3 -4 -20 -4 -19 -6 5
-1 35 25 36 55 1z m158 9 c4 -9 0 -23 -9 -32 -13 -14 -17 -14 -32 1 -13 14
-14 20 -3 32 16 21 36 20 44 -1z m55 -10 c-2 -24 -2 -25 -6 -5 -2 12 -8 22
-13 22 -5 0 -11 -10 -13 -22 -4 -20 -4 -19 -6 5 -1 21 4 27 19 27 15 0 20 -6
19 -27z m47 12 c-3 -8 -1 -15 4 -15 16 0 11 -17 -7 -24 -9 -4 -21 -1 -27 5 -8
9 -7 10 7 6 9 -4 17 -2 17 3 0 6 -7 10 -15 10 -16 0 -20 12 -8 23 13 13 35 7
29 -8z m88 -2 c4 -9 0 -23 -9 -32 -13 -14 -17 -14 -31 1 -9 9 -14 24 -11 32 8
21 43 20 51 -1z m114 -10 c3 -20 -2 -25 -24 -22 -4 0 -11 -5 -15 -13 -6 -8 -9
0 -9 25 0 34 3 38 23 35 14 -2 23 -11 25 -25z m51 0 c0 -16 -3 -22 -6 -15 -2
6 -9 12 -15 12 -6 0 -7 -7 -4 -16 3 -8 2 -13 -3 -10 -5 3 -8 17 -8 31 0 18 5
25 18 25 14 0 19 -7 18 -27z m107 16 c3 -5 -3 -6 -13 -3 -16 5 -16 4 1 -10 11
-9 16 -19 12 -23 -11 -11 -86 -10 -93 1 -4 5 1 7 10 3 9 -3 17 -1 19 5 3 8 11
7 27 -1 12 -7 25 -10 28 -8 3 3 -9 13 -26 21 -35 18 -45 20 -36 6 3 -5 2 -10
-4 -10 -12 0 -22 15 -15 22 8 9 84 6 90 -3z m53 -16 c0 -16 -3 -22 -6 -15 -2
6 -9 12 -15 12 -6 0 -7 -7 -4 -16 3 -8 2 -13 -3 -10 -5 3 -8 17 -8 31 0 18 5
25 18 25 14 0 19 -7 18 -27z m59 -10 c-2 -28 -8 -39 -22 -41 -13 -3 -17 0 -13
11 3 8 1 19 -5 25 -16 16 -2 42 22 42 18 0 21 -5 18 -37z m60 20 c2 -7 -3 -13
-12 -13 -9 0 -16 -5 -16 -11 0 -6 7 -8 18 -4 14 5 15 4 4 -6 -16 -17 -48 12
-38 36 7 18 37 17 44 -2z m50 -8 c0 -30 -15 -42 -31 -26 -9 9 -8 11 6 6 10 -4
17 -2 17 4 0 6 -7 11 -15 11 -16 0 -20 12 -8 23 14 15 31 6 31 -18z m80 1 c2
-10 -1 -23 -7 -29 -15 -15 -46 16 -37 38 8 21 40 15 44 -9z m170 0 c4 -21 -14
-37 -35 -29 -14 5 -18 35 -6 47 12 12 38 1 41 -18z m90 7 c2 -7 -3 -13 -12
-13 -9 0 -16 -5 -16 -11 0 -6 7 -8 18 -4 13 5 14 3 5 -6 -14 -14 -32 -4 -43
25 -8 21 -8 21 -18 -4 l-11 -25 0 27 c-1 25 2 27 36 25 20 -1 38 -8 41 -14z
m88 -11 c1 -19 1 -19 -3 -2 -6 27 -23 25 -24 -2 l0 -23 -9 23 c-5 12 -12 22
-15 22 -3 0 -10 -10 -15 -22 -8 -22 -9 -22 -9 5 -1 26 1 27 37 24 30 -2 37 -6
38 -25z m112 1 c3 -20 -2 -25 -24 -22 -4 0 -11 -5 -15 -13 -6 -8 -9 0 -9 25 0
34 3 38 23 35 14 -2 23 -11 25 -25z m48 0 c4 -26 -13 -40 -29 -24 -9 9 -7 11
8 6 19 -6 19 -6 3 8 -23 18 -23 39 -1 35 9 -2 18 -13 19 -25z m26 -2 c2 -17 1
-28 -4 -25 -8 5 -12 54 -4 54 2 0 6 -13 8 -29z m25 -8 c-3 -10 -5 -4 -5 12 0
17 2 24 5 18 2 -7 2 -21 0 -30z m92 9 c-2 -24 -2 -25 -6 -4 -2 12 -9 22 -14
22 -5 0 -10 -10 -10 -22 l-2 -23 -4 23 c-5 27 -23 29 -23 2 0 -11 -4 -20 -10
-20 -11 0 -14 33 -4 42 3 3 21 6 40 6 30 0 34 -3 33 -26z m79 -3 c3 -22 -1
-26 -20 -25 -13 0 -23 7 -22 14 1 6 2 19 3 28 2 26 36 12 39 -17z m47 1 c-8
-25 -29 -21 -32 6 -2 10 0 13 3 7 8 -19 24 -16 24 4 0 9 3 14 6 10 3 -3 3 -15
-1 -27z m54 3 c0 -16 -3 -22 -6 -15 -2 6 -9 12 -15 12 -6 0 -7 -7 -4 -16 3 -8
2 -13 -3 -10 -5 3 -8 17 -8 31 0 18 5 25 18 25 14 0 19 -7 18 -27z m100 0 c0
-16 -3 -22 -6 -15 -2 6 -9 12 -15 12 -6 0 -7 -7 -4 -16 3 -8 2 -13 -3 -10 -5
3 -8 17 -8 31 0 18 5 25 18 25 14 0 19 -7 18 -27z m145 12 c4 -10 -1 -15 -14
-15 -11 0 -20 -5 -20 -11 0 -6 7 -8 18 -4 13 5 14 3 5 -6 -14 -14 -33 -3 -33
20 0 32 33 44 44 16z m360 0 c4 -10 -1 -15 -14 -15 -11 0 -20 -5 -20 -11 0 -6
7 -8 18 -4 13 5 14 3 5 -6 -14 -14 -33 -3 -33 20 0 32 33 44 44 16z m-587 -27
c-3 -7 -5 -2 -5 12 0 14 2 19 5 13 2 -7 2 -19 0 -25z m240 -20 c-3 -8 -6 -5
-6 6 -1 11 2 17 5 13 3 -3 4 -12 1 -19z m-2156 -120 l-9 -33 -1 36 c-1 20 2
39 6 43 13 12 15 -10 4 -46z m1130 10 c-4 -41 -5 -42 -11 -13 -5 23 3 55 14
55 1 0 -1 -19 -3 -42z m-1579 -3 c5 -41 -7 -47 -15 -8 -5 25 -2 43 7 43 2 0 6
-16 8 -35z m109 20 c4 3 14 -3 20 -14 7 -11 19 -17 27 -13 10 3 13 1 8 -6 -4
-7 -2 -12 3 -12 6 0 11 9 11 21 0 16 -4 20 -17 14 -14 -5 -15 -3 -6 6 15 15
30 5 36 -26 4 -24 2 -26 -27 -23 -20 2 -33 10 -36 21 -7 25 -24 23 -32 -5 -4
-17 -6 -13 -6 17 0 22 2 34 5 27 2 -6 9 -10 14 -7z m378 -22 c-1 -38 -1 -38
-9 -9 -8 27 -6 46 6 46 2 0 4 -17 3 -37z m211 1 c0 -31 -3 -35 -22 -32 -15 2
-24 11 -26 26 -3 20 6 27 31 23 4 0 7 4 7 9 0 6 2 10 5 10 3 0 5 -16 5 -36z
m97 -16 c-2 -13 -4 -5 -4 17 -1 22 1 32 4 23 2 -10 2 -28 0 -40z m35 17 c5
-41 -7 -47 -15 -8 -5 25 -2 43 7 43 2 0 6 -16 8 -35z m180 0 c5 -41 -7 -47
-15 -8 -5 25 -2 43 7 43 2 0 6 -16 8 -35z m828 -1 c0 -13 5 -24 11 -24 7 0 9
10 7 25 -4 20 -3 23 8 14 8 -6 14 -8 14 -3 0 5 7 0 15 -10 15 -20 15 -20 16 0
0 10 3 14 5 8 7 -17 -14 -64 -28 -64 -9 0 -10 3 -2 8 7 4 8 15 4 27 -7 18 -8
19 -15 3 -4 -10 -18 -18 -31 -18 -21 0 -24 5 -24 36 0 21 4 33 10 29 6 -3 10
-17 10 -31z m345 -5 c0 -16 -3 -29 -7 -29 -5 0 -8 17 -8 37 0 20 3 33 8 29 4
-4 7 -21 7 -37z m125 5 c0 -31 -3 -35 -22 -32 -29 4 -34 54 -5 52 9 -1 17 2
17 7 0 5 2 9 5 9 3 0 5 -16 5 -36z m60 21 c10 0 16 -11 17 -30 2 -25 1 -26 -5
-7 -4 13 -11 23 -17 23 -5 0 -13 -10 -17 -23 -4 -17 -6 -13 -7 17 0 22 3 36 7
30 4 -5 14 -10 22 -10z m-2603 -31 l2 -29 -8 30 c-8 29 -10 28 -24 -15 -4 -9
-6 -6 -6 8 -1 12 -5 22 -10 22 -5 0 -12 -10 -14 -22 -4 -20 -4 -20 -6 4 -1 27
9 35 44 33 15 -1 20 -9 22 -31z m61 3 c3 -21 -1 -27 -16 -27 -30 0 -35 13 -10
33 17 14 19 17 5 13 -11 -4 -16 -2 -12 5 11 17 30 4 33 -24z m77 2 c0 -15 -7
-25 -18 -27 -22 -4 -33 24 -17 43 18 21 35 13 35 -16z m395 0 c0 -5 -10 -9
-22 -10 -22 0 -22 -1 -3 -10 20 -9 20 -9 0 -6 -23 3 -33 36 -14 48 14 8 39 -6
39 -22z m65 21 c3 -6 -1 -7 -9 -4 -9 3 -16 1 -16 -5 0 -6 7 -11 15 -11 8 0 15
-7 15 -15 0 -8 -9 -15 -19 -15 -16 0 -19 6 -17 28 2 15 4 28 5 30 3 6 20 1 26
-8z m183 -24 c-2 -13 -10 -21 -23 -21 -23 0 -33 34 -14 45 20 13 40 -1 37 -24z
m92 -2 c0 -30 -36 -33 -45 -4 -8 27 -23 25 -28 -2 -4 -19 -5 -18 -6 6 -1 24 2
27 19 23 11 -3 22 -1 25 4 10 16 35 -3 35 -27z m138 3 c3 -21 -1 -27 -16 -27
-30 0 -35 13 -10 33 17 14 19 17 5 13 -11 -4 -16 -2 -12 5 11 17 30 4 33 -24z
m110 0 c3 -21 -1 -27 -16 -27 -24 0 -36 28 -21 47 17 20 33 11 37 -20z m93 0
c6 -24 4 -27 -16 -27 -31 0 -43 20 -16 27 12 3 21 10 21 15 0 6 -7 7 -16 4 -9
-3 -12 -2 -9 5 11 16 28 5 36 -24z m115 -12 c-3 -9 -14 -15 -23 -13 -22 4 -30
38 -11 49 18 11 43 -15 34 -36z m53 7 l-1 -27 -8 30 c-7 29 -9 28 -23 -15 -3
-8 -6 -3 -6 12 -1 25 15 40 32 31 4 -2 6 -16 6 -31z m100 0 l-1 -27 -8 30 c-7
29 -9 28 -23 -15 -3 -8 -6 -3 -6 12 -1 25 15 40 32 31 4 -2 6 -16 6 -31z m81
21 c0 -3 -7 -3 -15 1 -8 3 -15 1 -15 -4 0 -17 32 -11 46 8 12 15 14 16 29 1 9
-9 13 -23 9 -32 -7 -19 -44 -23 -44 -6 0 8 -4 8 -15 -1 -8 -6 -20 -10 -27 -7
-8 3 -5 6 6 6 19 1 19 1 1 14 -20 16 -12 39 10 30 8 -3 15 -7 15 -10z m136
-16 c1 -26 1 -27 -3 -2 -5 29 -23 24 -23 -7 0 -26 -5 -21 -13 13 -6 22 -3 25
16 24 16 -1 22 -8 23 -28z m62 0 c3 -21 -1 -27 -16 -27 -24 0 -36 28 -21 47
17 20 33 11 37 -20z m111 19 c15 -18 3 -46 -19 -46 -10 0 -21 7 -24 16 -6 16
9 44 24 44 4 0 13 -6 19 -14z m100 -25 c-1 -25 -1 -25 -7 -3 -4 13 -11 23 -17
23 -5 0 -13 -10 -17 -23 -6 -22 -6 -22 -7 4 -1 14 5 28 12 31 22 8 37 -5 36
-32z m31 2 c0 -32 -5 -28 -14 10 -4 19 -3 26 4 22 5 -3 10 -18 10 -32z m249
-1 l-1 -27 -8 30 c-7 29 -9 28 -23 -15 -3 -8 -6 -3 -6 12 -1 25 15 40 32 31 4
-2 6 -16 6 -31z m79 26 c8 -8 15 -8 24 0 9 7 19 8 28 1 12 -8 11 -9 -5 -7 -12
2 -20 -3 -20 -12 0 -8 8 -14 17 -14 10 1 15 -2 12 -7 -9 -15 -32 -10 -43 9
-10 16 -10 16 -11 0 0 -21 -36 -25 -43 -5 -3 7 -6 6 -6 -5 -2 -35 -21 -28 -21
7 0 29 3 36 15 32 8 -4 17 -2 20 3 8 13 18 13 33 -2z m148 -33 c-3 -9 -14 -15
-23 -13 -22 4 -30 38 -11 49 18 11 43 -15 34 -36z m281 4 c-4 -22 -4 -21 -6 4
-1 32 -20 27 -22 -6 -1 -20 -2 -20 -8 3 -5 18 -3 27 8 31 22 9 34 -4 28 -32z
m61 7 c-4 -25 -36 -34 -44 -12 -8 21 13 46 32 39 8 -3 14 -15 12 -27z m190 0
c-2 -13 -10 -21 -23 -21 -23 0 -33 34 -14 45 20 13 40 -1 37 -24z m-2928 -11
c0 -19 -4 -35 -8 -35 -4 0 -6 16 -4 35 2 19 6 35 8 35 2 0 4 -16 4 -35z m89
18 c-7 -10 -15 -20 -16 -22 -2 -2 -3 5 -3 17 0 14 6 22 16 22 14 0 15 -3 3
-17z m28 -20 c-3 -10 -5 -4 -5 12 0 17 2 24 5 18 2 -7 2 -21 0 -30z m63 20 c0
-15 2 -14 15 3 17 23 19 17 4 -25 -6 -17 -15 -31 -20 -31 -4 0 -6 6 -3 14 3 8
1 24 -6 35 -7 14 -7 21 0 21 5 0 10 -8 10 -17z m201 2 c5 13 8 15 8 5 1 -17
-16 -47 -22 -40 -3 3 -8 16 -11 30 -6 23 -6 23 5 5 12 -19 12 -19 20 0z m170
-25 c5 0 14 10 19 23 8 21 9 21 9 -5 1 -23 -3 -28 -24 -28 -21 0 -25 4 -24 28
2 23 2 24 6 5 2 -13 9 -23 14 -23z m522 28 c-4 -7 -8 -16 -8 -20 0 -21 -15
-17 -15 5 0 18 5 27 16 27 10 0 12 -4 7 -12z m114 -25 c-3 -10 -5 -4 -5 12 0
17 2 24 5 18 2 -7 2 -21 0 -30z m160 0 c-3 -10 -5 -4 -5 12 0 17 2 24 5 18 2
-7 2 -21 0 -30z m210 0 c-3 -10 -5 -4 -5 12 0 17 2 24 5 18 2 -7 2 -21 0 -30z
m265 12 c-2 -14 -6 -25 -8 -25 -2 0 -4 11 -4 25 0 14 4 25 9 25 4 0 6 -11 3
-25z m295 -12 c-3 -10 -5 -4 -5 12 0 17 2 24 5 18 2 -7 2 -21 0 -30z m453 -3
c5 0 11 10 13 23 4 19 4 18 6 -5 1 -22 -4 -28 -19 -28 -15 0 -20 6 -19 28 2
23 2 24 6 5 2 -13 8 -23 13 -23z m50 20 c0 -11 -4 -20 -10 -20 -5 0 -10 9 -10
20 0 11 5 20 10 20 6 0 10 -9 10 -20z m151 -20 c5 0 14 10 19 23 8 21 9 21 9
-6 1 -24 -3 -28 -21 -25 -15 2 -23 10 -24 23 -1 15 0 16 3 3 3 -10 9 -18 14
-18z m51 15 c-2 -14 -6 -25 -8 -25 -2 0 -4 11 -4 25 0 14 4 25 9 25 4 0 6 -11
3 -25z m130 0 c-2 -14 -6 -25 -8 -25 -2 0 -4 11 -4 25 0 14 4 25 9 25 4 0 6
-11 3 -25z m-2912 -141 c0 -31 -3 -35 -22 -32 -30 4 -37 38 -9 45 12 3 21 9
21 14 0 5 2 9 5 9 3 0 5 -16 5 -36z m350 1 c0 -30 -3 -35 -24 -35 -14 0 -28 5
-31 10 -3 6 -16 10 -28 9 -21 0 -21 -1 -2 -9 19 -8 19 -9 -1 -9 -23 -1 -34 15
-27 37 5 14 43 17 43 3 0 -5 11 -4 25 2 14 7 25 15 25 20 0 4 5 7 10 7 6 0 10
-16 10 -35z m250 0 c0 -31 -3 -35 -25 -35 -18 0 -25 5 -25 20 0 27 -18 25 -23
-2 -4 -20 -4 -20 -6 4 -1 24 2 27 31 26 18 -1 34 4 36 10 7 22 12 12 12 -23z
m196 15 c9 0 14 -10 13 -27 -2 -24 -2 -25 -6 -5 -2 12 -8 22 -13 22 -5 0 -11
-10 -13 -22 -2 -13 -5 -5 -5 17 0 22 2 34 5 28 2 -7 11 -13 19 -13z m137 -3
c10 -4 16 -16 16 -29 l-2 -23 -4 23 c-2 12 -11 22 -18 22 -7 0 -16 -10 -18
-22 -2 -13 -5 -6 -5 17 -1 22 2 35 6 29 4 -6 15 -13 25 -17z m97 -12 c0 -31
-3 -35 -25 -35 -32 0 -36 39 -5 47 11 3 20 9 20 14 0 5 2 9 5 9 3 0 5 -16 5
-35z m207 -17 c-2 -13 -4 -5 -4 17 -1 22 1 32 4 23 2 -10 2 -28 0 -40z m153
37 c0 -8 6 -12 13 -10 7 3 12 -4 12 -19 0 -17 -3 -22 -12 -15 -7 7 -13 5 -16
-3 -4 -10 -8 -10 -16 2 -7 10 -11 11 -11 3 0 -16 -32 -17 -48 -1 -9 9 -12 9
-12 -1 0 -7 -9 -11 -22 -9 -15 2 -23 10 -23 23 0 23 33 33 47 13 7 -10 11 -10
15 0 2 6 13 12 23 12 10 0 21 -6 23 -12 3 -7 6 -3 6 10 1 24 21 31 21 7z m357
-37 c-2 -13 -4 -5 -4 17 -1 22 1 32 4 23 2 -10 2 -28 0 -40z m129 32 c9 0 14
-10 13 -27 -2 -24 -2 -25 -6 -5 -2 12 -8 22 -13 22 -5 0 -11 -10 -13 -22 -2
-13 -5 -5 -5 17 0 22 2 34 5 28 2 -7 11 -13 19 -13z m48 -19 c1 -17 -1 -31 -5
-31 -9 0 -17 42 -11 59 6 19 14 6 16 -28z m23 -13 c-2 -13 -4 -5 -4 17 -1 22
1 32 4 23 2 -10 2 -28 0 -40z m114 32 c14 0 19 -7 19 -25 0 -20 -5 -25 -25
-25 -22 0 -25 4 -24 38 0 20 3 31 6 25 2 -7 13 -13 24 -13z m96 -32 c-2 -13
-4 -5 -4 17 -1 22 1 32 4 23 2 -10 2 -28 0 -40z m236 29 c25 -9 17 -41 -11
-45 -19 -3 -22 1 -22 35 0 21 4 33 8 27 4 -6 15 -13 25 -17z m34 -29 c-2 -13
-4 -5 -4 17 -1 22 1 32 4 23 2 -10 2 -28 0 -40z m-1232 7 c0 -14 -3 -25 -7
-25 -4 0 -8 14 -8 32 0 36 13 30 15 -7z m-1313 0 c4 -21 1 -25 -18 -25 -28 0
-31 15 -6 29 15 9 13 10 -10 11 -20 0 -28 -6 -31 -22 -4 -20 -4 -19 -6 5 -1
24 2 27 33 27 28 0 34 -4 38 -25z m57 -2 c-2 -24 -2 -25 -6 -5 -2 12 -8 22
-13 22 -5 0 -11 -10 -13 -22 -4 -20 -4 -19 -6 5 -1 21 4 27 19 27 15 0 20 -6
19 -27z m126 2 c0 -21 -31 -33 -46 -18 -5 5 -7 17 -3 27 9 24 49 17 49 -9z
m84 -2 c-2 -24 -2 -25 -6 -5 -2 12 -9 22 -14 22 -5 0 -10 -10 -10 -22 l-2 -23
-4 23 c-2 12 -8 22 -13 22 -5 0 -11 -10 -13 -22 -4 -20 -4 -19 -6 5 -1 25 2
27 34 27 32 0 35 -2 34 -27z m31 2 c0 -14 -4 -25 -10 -25 -5 0 -10 11 -10 25
0 14 5 25 10 25 6 0 10 -11 10 -25z m46 -2 c2 -13 -1 -23 -7 -23 -5 0 -7 5 -4
10 3 6 -1 10 -9 10 -9 0 -16 7 -16 16 0 24 33 12 36 -13z m164 10 c0 -15 2
-14 15 3 8 10 15 14 15 8 0 -16 -26 -48 -32 -38 -13 23 -16 44 -8 44 6 0 10
-8 10 -17z m55 -12 c-7 -22 -25 -29 -25 -11 0 12 23 40 28 35 2 -2 1 -13 -3
-24z m60 4 c0 -13 -8 -21 -22 -23 -19 -3 -23 1 -23 23 0 22 4 26 23 23 14 -2
22 -10 22 -23z m130 15 c-16 -7 -17 -9 -3 -9 18 -1 34 -19 25 -27 -6 -6 -47
27 -47 38 0 5 10 8 23 7 21 0 21 -1 2 -9z m75 -32 c0 -4 -4 -8 -10 -8 -5 0
-10 4 -10 9 0 5 -3 18 -6 28 -5 16 -4 16 10 -1 9 -11 16 -23 16 -28z m20 27
c0 -8 -4 -15 -10 -15 -5 0 -10 7 -10 15 0 8 5 15 10 15 6 0 10 -7 10 -15z m23
-13 c-3 -12 -9 -22 -14 -22 -12 0 -11 7 3 30 15 24 19 21 11 -8z m88 16 c0
-10 2 -10 6 0 6 14 43 17 43 2 0 -5 -7 -7 -15 -4 -9 4 -15 0 -15 -9 0 -9 8
-18 18 -20 13 -4 11 -5 -5 -6 -13 0 -23 5 -24 12 0 10 -2 10 -6 0 -8 -22 -23
-14 -23 12 0 25 19 36 21 13z m247 -16 c3 -16 -2 -22 -17 -22 -24 0 -35 15
-27 36 9 23 40 13 44 -14z m58 0 c1 -18 1 -19 -3 -2 -6 27 -31 25 -36 -2 -4
-19 -4 -18 -6 5 -1 24 2 28 22 25 15 -2 22 -10 23 -26z m374 9 c6 -10 10 -9
20 5 11 18 11 18 6 1 -3 -10 -6 -23 -6 -28 0 -18 -21 -9 -30 14 -5 12 -9 16
-9 10 -1 -7 -11 -13 -23 -14 -22 0 -22 -1 -3 -9 19 -8 19 -9 -2 -9 -22 -1 -32
26 -16 42 10 11 54 2 63 -12z m80 4 c0 -8 -8 -15 -17 -16 -15 0 -15 -2 2 -9
19 -8 19 -9 -2 -9 -22 -1 -33 15 -25 37 6 17 42 15 42 -3z m59 -12 c-2 -24 -2
-25 -6 -5 -2 12 -9 22 -14 22 -5 0 -14 -10 -19 -22 -8 -22 -9 -22 -9 5 -1 22
3 27 24 27 21 0 25 -4 24 -27z m56 17 c-17 -7 -17 -9 -2 -9 9 -1 17 -8 17 -16
0 -12 -3 -12 -20 2 -26 23 -25 33 3 32 21 0 21 -1 2 -9z m66 -2 c0 -10 2 -10
6 0 2 6 16 12 29 12 20 0 24 -5 24 -29 0 -35 -19 -54 -40 -39 -12 8 -12 9 3 4
9 -3 17 -1 17 4 0 6 -7 10 -15 10 -8 0 -15 6 -16 13 0 10 -2 10 -6 0 -8 -22
-23 -14 -23 12 0 25 19 36 21 13z m207 -3 c15 26 15 3 0 -30 -16 -35 -23 -31
-25 13 -1 25 1 31 6 17 8 -19 8 -19 19 0z m150 -2 c2 -8 -6 -13 -20 -14 -23
-1 -23 -1 2 -9 23 -7 23 -8 3 -9 -25 -1 -37 13 -29 35 7 18 37 15 44 -3z m39
-20 c-3 -10 -5 -4 -5 12 0 17 2 24 5 18 2 -7 2 -21 0 -30z m63 22 c0 -8 -8
-15 -17 -16 -15 0 -15 -2 2 -9 19 -8 19 -9 -2 -9 -25 -1 -37 13 -29 34 7 20
46 19 46 0z m40 -2 c0 12 8 17 29 17 23 0 30 -5 33 -25 4 -21 1 -25 -18 -25
-28 0 -31 15 -6 29 15 9 14 10 -6 8 -12 -1 -25 -9 -28 -19 -7 -22 -20 -23 -28
-2 -11 28 -6 38 9 18 13 -17 14 -17 15 -1z m208 0 c2 -8 -6 -13 -20 -14 -22 0
-22 -1 -3 -9 19 -8 19 -9 -2 -9 -23 -1 -32 26 -16 43 10 10 36 3 41 -11z
m-1974 -259 c9 -23 7 -217 -2 -232 -7 -9 -85 -12 -358 -10 l-349 3 -3 114 c-1
63 0 121 2 128 4 10 76 13 355 13 309 0 350 -2 355 -16z m234 -70 c56 -39 -7
-134 -64 -96 -18 12 -35 52 -28 65 28 48 54 58 92 31z m118 -19 c4 -8 10 -15
15 -15 5 0 9 7 9 15 0 25 30 17 31 -7 0 -13 3 -17 6 -10 2 6 16 12 29 12 13 0
24 -6 24 -12 0 -10 2 -10 9 0 5 8 23 12 47 10 31 -2 40 -7 42 -24 4 -31 -28
-41 -49 -15 l-17 20 -7 -22 c-4 -13 -8 -17 -11 -10 -4 10 -10 10 -25 0 -17
-10 -23 -9 -35 7 -14 20 -14 20 -14 0 -1 -19 -1 -19 -15 0 -13 17 -15 18 -15
3 0 -9 -4 -17 -10 -17 -5 0 -10 5 -10 11 0 8 -5 8 -15 -1 -13 -11 -15 -7 -15
29 0 40 15 55 26 26z m264 6 c0 -16 54 -17 67 -1 9 11 15 12 20 4 5 -7 19 -14
33 -15 31 -5 40 -43 13 -53 -12 -5 -24 0 -35 14 -17 21 -18 21 -18 3 0 -12 -7
-19 -20 -19 -13 0 -20 7 -20 18 0 10 -4 18 -10 18 -5 0 -10 -8 -10 -18 0 -11
-7 -18 -20 -18 -16 0 -20 7 -20 38 0 21 5 38 10 38 6 0 10 -4 10 -9z m-1218
-688 l11 -28 6 24 c4 14 13 27 20 29 10 3 12 0 8 -13 -4 -9 -10 -28 -13 -41
-9 -35 -41 -31 -49 6 -5 21 -13 30 -26 30 -14 0 -19 -7 -19 -30 0 -16 -4 -30
-10 -30 -5 0 -10 14 -10 30 0 20 -5 30 -15 30 -8 0 -15 5 -15 10 0 6 23 10 50
10 46 0 52 -3 62 -27z m148 17 c0 -5 -10 -10 -22 -10 -20 -1 -19 -3 7 -14 25
-11 31 -11 38 1 11 18 47 17 47 -2 0 -9 -6 -12 -15 -9 -9 4 -15 0 -15 -9 0
-27 38 -7 45 24 4 16 11 29 16 29 5 0 8 -3 8 -7 -4 -23 3 -33 21 -33 11 0 20
-4 20 -10 0 -5 -9 -10 -20 -10 -11 0 -20 -4 -20 -9 0 -5 -20 -9 -45 -9 -28 -1
-45 3 -45 10 0 9 -3 9 -12 0 -15 -15 -68 -16 -68 -1 0 6 9 8 20 4 11 -3 20 -2
20 3 0 5 -9 12 -20 15 -12 3 -20 14 -20 26 0 17 6 21 30 21 17 0 30 -4 30 -10z
m220 0 c0 -5 -10 -11 -22 -11 l-23 -2 23 -4 c27 -5 29 -23 2 -23 -11 0 -20 -7
-20 -15 0 -8 -4 -15 -10 -15 -5 0 -10 18 -10 40 0 38 2 40 30 40 17 0 30 -4
30 -10z m30 -30 c0 -22 -4 -40 -10 -40 -5 0 -10 18 -10 40 0 22 5 40 10 40 6
0 10 -18 10 -40z m93 12 c-2 -13 1 -21 7 -17 6 3 10 -3 10 -14 0 -17 -6 -21
-35 -21 -38 0 -38 1 -29 49 5 25 11 31 28 29 15 -2 20 -9 19 -26z m87 13 c0
-8 7 -15 15 -15 8 0 15 7 15 15 0 8 5 15 10 15 6 0 10 -18 10 -40 0 -22 -4
-40 -10 -40 -5 0 -10 7 -10 15 0 8 -7 15 -15 15 -8 0 -15 -7 -15 -15 0 -8 -4
-15 -10 -15 -5 0 -10 18 -10 40 0 22 5 40 10 40 6 0 10 -7 10 -15z m118 -37
c3 -24 0 -28 -23 -28 -27 0 -41 20 -31 46 10 27 51 13 54 -18z m48 20 c-3 -7
-9 -21 -12 -30 -10 -28 -24 -21 -24 12 0 24 4 30 21 30 13 0 19 -5 15 -12z
m50 0 c-3 -7 -9 -21 -12 -30 -10 -28 -24 -21 -24 12 0 24 4 30 21 30 13 0 19
-5 15 -12z m69 -18 c0 -20 -6 -26 -27 -28 -24 -3 -28 0 -28 21 0 30 9 39 35
35 14 -2 20 -10 20 -28z m55 20 c0 -5 -4 -10 -10 -10 -5 0 -10 -9 -10 -20 0
-11 -4 -20 -10 -20 -5 0 -10 14 -10 30 0 23 4 30 20 30 11 0 20 -4 20 -10z
m1345 -179 c3 -5 1 -12 -5 -16 -5 -3 -10 1 -10 9 0 18 6 21 15 7z m41 -3 c4
-7 3 -8 -4 -4 -7 4 -12 2 -12 -5 0 -7 -3 -10 -6 -6 -6 5 3 27 11 27 2 0 7 -5
11 -12z m44 -2 c0 -3 -4 -8 -10 -11 -5 -3 -10 -1 -10 4 0 6 5 11 10 11 6 0 10
-2 10 -4z m40 -6 c0 -5 -7 -7 -15 -4 -8 4 -15 8 -15 10 0 2 7 4 15 4 8 0 15
-4 15 -10z m150 0 c0 -5 -2 -10 -4 -10 -3 0 -8 5 -11 10 -3 6 -1 10 4 10 6 0
11 -4 11 -10z m2841 -63 c-5 -5 -17 -4 -31 3 -17 9 -19 14 -9 26 10 13 14 12
31 -3 11 -10 15 -20 9 -26z m-925 16 c21 -27 17 -53 -7 -53 -14 0 -19 -5 -17
-17 2 -10 10 -17 16 -15 7 1 12 -2 12 -8 0 -5 9 -10 19 -10 25 0 35 -31 20
-64 -11 -24 -29 -36 -29 -18 0 4 -17 8 -38 9 l-37 1 35 -10 c47 -13 47 -14 20
-43 -23 -25 -50 -33 -50 -16 0 5 -9 12 -19 16 -10 3 -22 16 -26 28 -4 12 -8
24 -10 27 -1 3 -5 13 -9 23 -11 24 0 47 24 47 11 0 20 4 20 10 0 5 7 7 15 4
10 -4 15 0 15 15 0 15 -6 21 -24 21 -44 0 -41 41 4 59 37 14 51 13 66 -6z
m744 -21 c0 -15 -2 -15 -10 -2 -13 20 -13 33 0 25 6 -3 10 -14 10 -23z m-1099
-4 c4 -6 9 -6 13 1 11 17 23 13 29 -9 8 -32 -3 -59 -27 -62 -18 -3 -21 -9 -20
-45 1 -34 -2 -43 -15 -43 -13 -1 -13 -3 4 -16 17 -13 18 -16 5 -24 -12 -8 -10
-10 9 -10 23 0 24 2 18 55 l-5 54 34 -1 c39 -1 45 -21 18 -66 -15 -25 -15 -25
0 -8 9 11 16 17 16 13 0 -8 -39 -87 -43 -87 -69 -12 -74 -11 -91 15 -17 26
-48 126 -41 133 2 2 18 4 36 5 41 2 50 24 12 29 -24 3 -28 8 -29 36 -1 20 5
36 15 42 17 10 52 3 62 -12z m620 -12 c15 -33 15 -35 -8 -45 -18 -8 -23 -19
-23 -45 0 -19 -4 -37 -10 -41 -5 -3 -7 -12 -4 -19 3 -8 0 -17 -5 -21 -19 -11
-1 -25 31 -25 26 0 29 -2 18 -15 -24 -29 -47 -17 -74 37 -32 65 -33 85 -3 84
13 -1 22 5 22 14 0 8 -10 16 -22 18 -48 7 -15 92 35 92 22 0 31 -7 43 -34z
m-1551 4 c32 -10 80 -64 80 -91 0 -5 7 -9 16 -9 9 0 18 -9 21 -20 3 -13 14
-20 28 -20 31 0 38 -33 14 -64 -18 -23 -22 -24 -141 -20 -67 2 -127 9 -132 14
-34 34 24 220 68 220 6 0 27 -5 46 -10z m2020 -27 c22 -10 18 -11 -32 -10 -31
1 -54 5 -51 10 2 4 11 7 19 7 8 0 14 8 14 18 1 15 2 15 13 2 7 -9 23 -21 37
-27z m1520 -65 c0 -26 -4 -38 -14 -38 -15 0 -29 -27 -21 -40 3 -5 12 -7 20 -3
11 3 13 1 9 -10 -3 -9 3 -24 14 -35 16 -16 18 -22 6 -26 -7 -3 -11 -12 -8 -19
3 -8 -2 -21 -10 -29 -11 -12 -12 -18 -3 -28 9 -10 9 -14 0 -17 -7 -3 -13 -13
-13 -24 0 -10 -4 -19 -8 -19 -15 0 -30 22 -25 37 3 7 -3 23 -13 35 -14 15 -16
22 -6 25 6 3 10 9 6 14 -3 5 3 9 13 9 17 1 17 1 0 11 -10 6 -29 8 -43 5 -20
-5 -24 -3 -24 18 0 13 -7 26 -15 30 -8 3 -15 12 -15 21 0 12 8 14 39 9 34 -5
41 -3 51 16 13 25 13 26 -19 38 -15 5 -25 18 -27 34 -2 21 4 29 26 38 16 7 34
9 39 5 6 -3 11 0 11 7 1 32 30 -30 30 -64z m-4612 20 c-3 -16 -1 -31 3 -34 5
-2 5 -12 2 -22 -6 -14 -4 -15 9 -4 25 20 31 -2 11 -35 -21 -34 -45 -32 -62 3
-6 14 -15 23 -20 20 -13 -8 12 -74 34 -89 15 -12 16 -20 9 -53 l-10 -38 -32
58 c-33 58 -35 71 -15 140 3 12 1 16 -6 12 -6 -4 -11 0 -11 8 0 9 7 16 15 16
8 0 15 5 15 10 0 17 40 51 51 44 6 -3 9 -20 7 -36z m1782 -33 l0 -75 -31 0
-32 0 6 65 c7 76 11 85 38 85 17 0 19 -7 19 -75z m2555 43 c-13 -8 -16 -22
-15 -61 4 -79 2 -86 -19 -84 -11 0 -17 5 -14 10 10 17 -21 57 -51 66 -26 8
-28 9 -8 10 15 1 26 9 29 20 3 11 10 18 17 15 7 -3 23 6 37 19 13 13 28 21 33
19 5 -3 1 -9 -9 -14z m-6403 -50 l2 -53 3 53 c3 44 7 52 24 52 14 0 24 -11 32
-32 l11 -33 6 30 c4 24 10 30 30 30 23 0 25 -4 28 -57 2 -52 0 -58 -18 -58
-12 0 -20 7 -21 18 -1 16 -2 16 -6 0 -7 -27 -43 -23 -44 5 -2 22 -2 22 -6 1
-3 -18 -11 -22 -39 -22 l-34 0 0 59 c0 46 3 59 15 59 11 0 15 -13 17 -52z
m238 32 c17 -33 3 -60 -31 -60 -22 0 -29 -5 -29 -20 0 -11 -7 -20 -15 -20 -12
0 -15 13 -15 60 l0 60 40 0 c29 0 42 -5 50 -20z m110 5 c0 -10 -11 -15 -32
-16 l-33 -1 29 -7 c38 -8 47 -31 12 -31 -14 0 -26 -4 -26 -10 0 -5 11 -10 25
-10 16 0 25 -6 25 -15 0 -11 -12 -15 -45 -15 l-45 0 0 60 0 60 45 0 c33 0 45
-4 45 -15z m2248 -1 c23 -7 32 -47 12 -59 -5 -3 -10 -17 -10 -31 0 -14 -7 -32
-15 -41 -18 -17 -18 -17 -34 14 -10 20 -9 23 14 29 31 8 33 22 3 26 -23 3 -34
28 -24 54 6 15 18 17 54 8z m-1155 -55 c-30 -12 -33 -10 -33 23 l0 31 25 -23
c24 -22 24 -25 8 -31z m697 21 c0 -11 -7 -20 -15 -20 -15 0 -21 21 -8 33 12
13 23 7 23 -13z m2600 15 c0 -2 -8 -20 -17 -40 -12 -26 -23 -35 -41 -35 -22 0
-22 1 -7 16 9 9 14 23 11 31 -4 8 -4 19 0 24 5 9 54 13 54 4z m1340 -9 c0 -3
-4 -8 -10 -11 -5 -3 -10 -1 -10 4 0 6 5 11 10 11 6 0 10 -2 10 -4z m-2433 -48
c-3 -7 -5 -2 -5 12 0 14 2 19 5 13 2 -7 2 -19 0 -25z m-2125 -6 c-10 -3 -10
-7 -1 -18 6 -8 8 -14 3 -14 -13 0 -36 16 -36 25 0 12 25 24 36 18 6 -4 5 -8
-2 -11z m841 -22 c3 -10 -1 -25 -9 -31 -10 -8 -13 -25 -10 -50 3 -28 0 -39
-12 -44 -16 -6 -15 -7 1 -16 22 -13 13 -31 -11 -22 -14 6 -15 4 -4 -9 10 -12
9 -18 -3 -28 -13 -11 -19 -11 -31 2 -13 12 -14 20 -5 37 7 12 9 36 5 56 -6 32
-4 36 22 46 27 10 28 12 12 23 -18 13 -23 37 -11 49 14 15 51 6 56 -13z m280
14 c9 -9 -4 -35 -14 -28 -5 3 -9 12 -9 20 0 14 12 19 23 8z m4514 -26 c-3 -7
-5 -2 -5 12 0 14 2 19 5 13 2 -7 2 -19 0 -25z m-5745 10 c-17 -17 -15 -42 6
-68 15 -18 25 -22 45 -16 22 5 26 11 23 31 -6 31 9 42 23 18 11 -17 12 -17 25
0 13 17 15 16 20 -10 13 -63 4 -225 -13 -231 -6 -2 -8 -9 -4 -15 4 -7 -1 -6
-10 2 -11 9 -17 10 -17 2 0 -6 -4 -11 -10 -11 -5 0 -10 7 -10 15 0 10 -10 15
-27 15 -34 1 -67 20 -70 40 0 8 -7 50 -13 92 -7 42 -9 85 -5 95 5 10 7 22 6
27 -2 10 18 26 34 26 5 0 4 -5 -3 -12z m4048 -14 c0 -2 -9 -4 -21 -4 -11 0
-18 4 -14 10 5 8 35 3 35 -6z m802 -24 c3 -17 0 -34 -6 -37 -5 -4 -1 -10 10
-14 18 -7 18 -8 -1 -8 -17 -1 -17 -3 -5 -11 12 -8 12 -10 1 -10 -11 0 -11 -3
-1 -15 10 -12 9 -15 -4 -15 -31 0 -46 73 -26 125 12 32 26 26 32 -15z m83 0
c15 -21 32 -38 39 -37 15 3 20 -53 6 -67 -9 -8 -14 -8 -17 2 -3 6 -9 9 -15 6
-5 -4 -4 4 3 17 11 21 10 22 -2 12 -13 -10 -15 -7 -15 22 0 19 -8 42 -17 53
-16 17 -22 32 -13 32 2 0 16 -18 31 -40z m-6285 10 c43 -43 10 -110 -55 -110
l-35 0 0 65 0 65 35 0 c22 0 43 -8 55 -20z m124 4 c19 -19 19 -17 4 -49 -9
-19 -9 -28 0 -37 18 -18 15 -28 -8 -28 -10 0 -25 10 -31 22 l-12 22 -8 -22
c-5 -12 -15 -22 -24 -22 -12 0 -15 13 -15 65 l0 65 39 0 c23 0 46 -7 55 -16z
m116 1 c0 -9 -9 -15 -25 -15 -14 0 -25 -4 -25 -8 0 -5 10 -8 22 -8 14 1 24 -6
26 -17 2 -11 -2 -18 -10 -16 -24 3 -38 -1 -38 -11 0 -5 14 -10 30 -10 20 0 30
-5 30 -15 0 -11 -12 -15 -50 -15 l-50 0 0 65 0 65 45 0 c33 0 45 -4 45 -15z
m122 -40 c21 -64 21 -75 3 -75 -8 0 -15 5 -15 10 0 6 -11 10 -25 10 -14 0 -25
-4 -25 -10 0 -5 -9 -10 -21 -10 -16 0 -19 4 -15 17 4 9 14 39 23 65 13 40 19
49 37 46 15 -2 25 -16 38 -53z m3383 35 c3 -5 1 -10 -4 -10 -6 0 -11 5 -11 10
0 6 2 10 4 10 3 0 8 -4 11 -10z m-830 -109 c19 -51 15 -62 -9 -25 -10 14 -19
51 -21 82 -4 48 -3 52 4 22 5 -19 17 -55 26 -79z m4187 37 c-7 -107 -12 -115
-44 -78 -24 28 -25 30 -6 24 28 -9 38 10 38 74 0 28 4 52 9 52 4 0 6 -33 3
-72z m-2582 31 c0 -10 -4 -19 -10 -19 -5 0 -10 12 -10 26 0 14 4 23 10 19 6
-3 10 -15 10 -26z m-1970 17 c0 -2 -7 -6 -15 -10 -8 -3 -15 -1 -15 4 0 6 7 10
15 10 8 0 15 -2 15 -4z m1574 -27 c-25 -27 -38 -23 -17 5 10 13 22 22 26 19 5
-3 1 -14 -9 -24z m576 17 c0 -2 -8 -10 -17 -17 -16 -13 -17 -12 -4 4 13 16 21
21 21 13z m1550 0 c0 -3 -4 -8 -10 -11 -5 -3 -10 -1 -10 4 0 6 5 11 10 11 6 0
10 -2 10 -4z m413 -19 c9 5 9 3 1 -8 -6 -8 -14 -21 -17 -29 -3 -8 -5 1 -5 20
0 19 2 29 5 22 2 -6 10 -9 16 -5z m41 -4 c-5 -5 -12 -12 -16 -18 -4 -6 -8 -2
-8 8 0 9 7 17 17 17 9 0 12 -3 7 -7z m-177 -68 c-4 -8 -2 -17 4 -21 6 -3 8
-12 5 -20 -4 -9 2 -14 17 -15 12 0 16 -3 10 -6 -7 -2 -13 -11 -13 -19 0 -24
-17 -15 -24 12 -7 25 -8 26 -22 8 -13 -18 -14 -17 -10 8 5 29 23 68 32 68 4 0
4 -7 1 -15z m-2590 -17 c-3 -8 -6 -5 -6 6 -1 11 2 17 5 13 3 -3 4 -12 1 -19z
m53 5 c0 -15 -2 -16 -10 -3 -8 12 -10 12 -10 1 0 -8 -3 -12 -6 -8 -8 7 4 27
17 27 5 0 9 -8 9 -17z m267 -5 c-3 -8 -6 -5 -6 6 -1 11 2 17 5 13 3 -3 4 -12
1 -19z m50 0 c-3 -8 -6 -5 -6 6 -1 11 2 17 5 13 3 -3 4 -12 1 -19z m97 6 c3
-8 2 -12 -4 -9 -6 3 -10 10 -10 16 0 14 7 11 14 -7z m243 -6 c-3 -8 -6 -5 -6
6 -1 11 2 17 5 13 3 -3 4 -12 1 -19z m2079 -8 c-3 -43 -14 -48 -14 -6 0 20 4
36 8 36 5 0 7 -13 6 -30z m-2356 16 c0 -9 -30 -14 -35 -6 -4 6 3 10 14 10 12
0 21 -2 21 -4z m360 -6 c0 -5 -2 -10 -4 -10 -3 0 -8 5 -11 10 -3 6 -1 10 4 10
6 0 11 -4 11 -10z m2333 -40 c23 -38 9 -45 -31 -13 -25 19 -30 28 -22 38 15
18 33 10 53 -25z m-738 0 c3 -5 -1 -10 -10 -10 -9 0 -13 5 -10 10 3 6 8 10 10
10 2 0 7 -4 10 -10z m-370 -20 c0 -8 -10 -16 -22 -18 -17 -3 -20 1 -16 18 6
24 38 24 38 0z m1042 -2 c-3 -8 -6 -5 -6 6 -1 11 2 17 5 13 3 -3 4 -12 1 -19z
m-637 -29 c0 -6 -4 -7 -10 -4 -5 3 -10 11 -10 16 0 6 5 7 10 4 6 -3 10 -11 10
-16z m355 -9 c-2 -40 -15 -51 -15 -13 0 24 6 43 15 43 1 0 1 -14 0 -30z m-43
-2 c-7 -7 -12 -8 -12 -2 0 14 12 26 19 19 2 -3 -1 -11 -7 -17z m-742 2 c-20
-13 -33 -13 -25 0 3 6 14 10 23 10 15 0 15 -2 2 -10z m693 -7 c-7 -2 -13 -12
-13 -21 0 -13 -3 -13 -12 -4 -10 10 -10 15 2 22 8 5 20 9 25 9 6 0 4 -3 -2 -6z
m152 -13 c-3 -5 -11 -10 -16 -10 -6 0 -7 5 -4 10 3 6 11 10 16 10 6 0 7 -4 4
-10z"/>
<path d="M7952 5478 c-30 -30 -1 -75 43 -64 22 6 26 11 23 39 -2 26 -8 33 -28
35 -14 2 -31 -3 -38 -10z"/>
<path d="M854 3255 c-18 -13 -16 -14 19 -15 41 0 46 5 18 19 -13 7 -24 6 -37
-4z"/>
<path d="M1587 3193 c-4 -3 -7 -12 -7 -20 0 -20 38 -15 50 7 9 17 8 20 -13 20
-13 0 -27 -3 -30 -7z"/>
<path d="M2417 3193 c-4 -3 -7 -12 -7 -20 0 -20 38 -15 50 7 9 17 8 20 -13 20
-13 0 -27 -3 -30 -7z"/>
<path d="M3110 2880 c0 -11 4 -20 9 -20 11 0 22 26 14 34 -12 12 -23 5 -23
-14z"/>
<path d="M890 2869 c0 -5 5 -7 10 -4 6 3 10 8 10 11 0 2 -4 4 -10 4 -5 0 -10
-5 -10 -11z"/>
<path d="M1120 2870 c0 -5 5 -10 10 -10 6 0 10 5 10 10 0 6 -4 10 -10 10 -5 0
-10 -4 -10 -10z"/>
<path d="M1350 2880 c0 -13 5 -20 13 -17 6 2 12 10 12 17 0 7 -6 15 -12 18 -8
2 -13 -5 -13 -18z"/>
<path d="M1535 2890 c-7 -12 2 -30 16 -30 5 0 9 9 9 20 0 21 -15 27 -25 10z"/>
<path d="M1652 2884 c4 -21 22 -23 26 -1 2 10 -3 17 -13 17 -10 0 -15 -6 -13
-16z"/>
<path d="M1925 2890 c-4 -6 -2 -17 4 -24 6 -7 8 -16 4 -19 -3 -4 -2 -7 4 -7 5
0 10 14 11 30 1 30 -11 40 -23 20z"/>
<path d="M2115 2890 c-8 -13 4 -32 16 -25 12 8 12 35 0 35 -6 0 -13 -4 -16
-10z"/>
<path d="M2282 2884 c4 -21 22 -23 26 -1 2 10 -3 17 -13 17 -10 0 -15 -6 -13
-16z"/>
<path d="M2572 2886 c1 -10 8 -17 13 -17 15 1 12 24 -3 29 -9 3 -13 -2 -10
-12z"/>
<path d="M2850 2869 c0 -5 5 -7 10 -4 6 3 10 8 10 11 0 2 -4 4 -10 4 -5 0 -10
-5 -10 -11z"/>
<path d="M1295 2740 c-7 -12 2 -30 16 -30 12 0 12 27 0 35 -5 3 -12 1 -16 -5z"/>
<path d="M2904 2736 c-8 -22 3 -33 18 -18 9 9 9 15 0 24 -9 9 -13 7 -18 -6z"/>
<path d="M505 2740 c-7 -12 2 -30 16 -30 12 0 12 27 0 35 -5 3 -12 1 -16 -5z"/>
<path d="M895 2740 c-3 -5 1 -10 10 -10 9 0 13 5 10 10 -3 6 -8 10 -10 10 -2
0 -7 -4 -10 -10z"/>
<path d="M1145 2740 c-3 -5 1 -10 10 -10 9 0 13 5 10 10 -3 6 -8 10 -10 10 -2
0 -7 -4 -10 -10z"/>
<path d="M1148 2713 c7 -3 16 -2 19 1 4 3 -2 6 -13 5 -11 0 -14 -3 -6 -6z"/>
<path d="M1240 2740 c0 -5 5 -10 11 -10 5 0 7 5 4 10 -3 6 -8 10 -11 10 -2 0
-4 -4 -4 -10z"/>
<path d="M1378 2713 c7 -3 16 -2 19 1 4 3 -2 6 -13 5 -11 0 -14 -3 -6 -6z"/>
<path d="M1490 2740 c0 -5 5 -10 10 -10 6 0 10 5 10 10 0 6 -4 10 -10 10 -5 0
-10 -4 -10 -10z"/>
<path d="M1694 2736 c-8 -22 3 -33 18 -18 9 9 9 15 0 24 -9 9 -13 7 -18 -6z"/>
<path d="M1984 2736 c-8 -22 3 -33 18 -18 9 9 9 15 0 24 -9 9 -13 7 -18 -6z"/>
<path d="M2130 2740 c0 -5 5 -10 11 -10 5 0 7 5 4 10 -3 6 -8 10 -11 10 -2 0
-4 -4 -4 -10z"/>
<path d="M2237 2736 c-6 -15 1 -26 15 -26 4 0 8 9 8 20 0 23 -15 27 -23 6z"/>
<path d="M2700 2740 c0 -5 5 -10 10 -10 6 0 10 5 10 10 0 6 -4 10 -10 10 -5 0
-10 -4 -10 -10z"/>
<path d="M2845 2740 c-3 -5 1 -10 10 -10 9 0 13 5 10 10 -3 6 -8 10 -10 10 -2
0 -7 -4 -10 -10z"/>
<path d="M2848 2713 c7 -3 16 -2 19 1 4 3 -2 6 -13 5 -11 0 -14 -3 -6 -6z"/>
<path d="M3185 2740 c-7 -12 2 -30 16 -30 12 0 12 27 0 35 -5 3 -12 1 -16 -5z"/>
<path d="M3376 2743 c-12 -12 -6 -33 9 -33 8 0 15 6 15 14 0 17 -14 28 -24 19z"/>
<path d="M487 2583 c-12 -11 -8 -23 8 -23 8 0 15 7 15 15 0 16 -12 20 -23 8z"/>
<path d="M827 2583 c-12 -11 -8 -23 8 -23 8 0 15 7 15 15 0 16 -12 20 -23 8z"/>
<path d="M1080 2575 c0 -8 7 -15 15 -15 8 0 15 7 15 15 0 8 -7 15 -15 15 -8 0
-15 -7 -15 -15z"/>
<path d="M1510 2575 c0 -8 7 -15 15 -15 8 0 15 7 15 15 0 8 -7 15 -15 15 -8 0
-15 -7 -15 -15z"/>
<path d="M1787 2584 c-8 -8 1 -24 14 -24 5 0 9 7 9 15 0 15 -12 20 -23 9z"/>
<path d="M1847 2584 c-8 -8 1 -24 14 -24 5 0 9 7 9 15 0 15 -12 20 -23 9z"/>
<path d="M2567 2583 c-12 -11 -8 -23 8 -23 8 0 15 7 15 15 0 16 -12 20 -23 8z"/>
<path d="M2890 2575 c0 -8 7 -15 15 -15 8 0 15 7 15 15 0 8 -7 15 -15 15 -8 0
-15 -7 -15 -15z"/>
<path d="M550 2575 c0 -9 5 -15 11 -13 6 2 11 8 11 13 0 5 -5 11 -11 13 -6 2
-11 -4 -11 -13z"/>
<path d="M990 2576 c0 -9 7 -16 16 -16 9 0 14 5 12 12 -6 18 -28 21 -28 4z"/>
<path d="M1570 2575 c0 -8 7 -15 15 -15 8 0 15 7 15 15 0 8 -7 15 -15 15 -8 0
-15 -7 -15 -15z"/>
<path d="M1988 2583 c7 -3 16 -2 19 1 4 3 -2 6 -13 5 -11 0 -14 -3 -6 -6z"/>
<path d="M2320 2575 c0 -9 5 -15 11 -13 6 2 11 8 11 13 0 5 -5 11 -11 13 -6 2
-11 -4 -11 -13z"/>
<path d="M2628 2583 c7 -3 16 -2 19 1 4 3 -2 6 -13 5 -11 0 -14 -3 -6 -6z"/>
<path d="M2978 2583 c7 -3 16 -2 19 1 4 3 -2 6 -13 5 -11 0 -14 -3 -6 -6z"/>
<path d="M486 2263 c-9 -9 -7 -101 2 -107 11 -7 94 44 90 55 -5 14 -84 59 -92
52z"/>
<path d="M650 2213 c0 -21 4 -33 8 -27 12 18 52 24 52 8 0 -8 5 -14 10 -14 6
0 10 15 10 33 0 30 -2 32 -40 35 l-40 2 0 -37z m40 11 c0 -17 -22 -14 -28 4
-2 7 3 12 12 12 9 0 16 -7 16 -16z"/>
<path d="M743 2203 c1 -16 6 -27 10 -25 4 1 14 2 22 2 8 0 15 8 16 18 0 14 2
14 8 -3 5 -11 7 -23 4 -27 -2 -5 0 -8 5 -8 6 0 15 14 21 32 13 36 6 53 -7 18
-8 -22 -9 -22 -14 -4 -3 13 -15 20 -36 22 -28 2 -31 0 -29 -25z"/>
<path d="M1202 2238 c-27 -27 -6 -68 35 -68 28 0 43 28 32 58 -9 24 -47 30
-67 10z m38 -40 c0 -16 -3 -19 -11 -11 -6 6 -8 16 -5 22 11 17 16 13 16 -11z"/>
<path d="M1466 2211 c-4 -5 -2 -12 3 -15 5 -4 12 -2 15 3 4 5 2 12 -3 15 -5 4
-12 2 -15 -3z"/>
<path d="M1766 2211 c-4 -7 -5 -15 -2 -18 9 -9 19 4 14 18 -4 11 -6 11 -12 0z"/>
<path d="M1090 1531 c0 -6 5 -13 10 -16 6 -3 10 1 10 9 0 9 -4 16 -10 16 -5 0
-10 -4 -10 -9z"/>
<path d="M1260 1524 c0 -8 5 -12 10 -9 6 3 10 10 10 16 0 5 -4 9 -10 9 -5 0
-10 -7 -10 -16z"/>
<path d="M4835 1160 c3 -5 12 -10 20 -10 8 0 17 5 20 10 4 6 -5 10 -20 10 -15
0 -24 -4 -20 -10z"/>
<path d="M4561 1067 c-13 -21 -12 -21 5 -5 10 10 16 20 13 22 -3 3 -11 -5 -18
-17z"/>
<path d="M7060 1070 c0 -22 1 -23 24 -14 18 7 10 34 -10 34 -8 0 -14 -9 -14
-20z"/>
<path d="M640 1181 c0 -11 26 -22 34 -14 3 3 3 10 0 14 -7 12 -34 11 -34 0z"/>
<path d="M1895 943 c5 -19 2 -23 -15 -23 -12 0 -18 -4 -15 -11 4 -6 14 -8 22
-5 9 4 22 1 29 -5 23 -19 17 15 -7 42 l-20 24 6 -22z"/>
<path d="M460 1026 c0 -20 5 -26 21 -26 15 0 20 5 17 22 -5 34 -38 37 -38 4z"/>
<path d="M592 1051 c2 -7 7 -12 11 -12 12 1 9 15 -3 20 -7 2 -11 -2 -8 -8z"/>
<path d="M835 1020 c3 -5 8 -10 11 -10 2 0 4 5 4 10 0 6 -5 10 -11 10 -5 0 -7
-4 -4 -10z"/>
<path d="M7801 4176 c-53 -29 -50 89 -51 -2059 l0 -1999 34 -34 34 -34 862 0
862 0 34 34 c33 33 45 66 23 66 -8 0 -8 4 0 14 8 9 11 78 9 226 -3 224 -10
255 -41 183 l-17 -38 5 53 c4 46 2 52 -15 52 -27 0 -25 10 7 40 15 14 23 19
19 13 -4 -8 -1 -13 9 -13 13 0 14 -4 4 -21 -8 -17 -8 -20 1 -14 7 4 16 2 20
-5 5 -8 8 9 8 38 1 50 0 52 -27 52 -15 0 -32 5 -39 12 -8 8 -12 8 -12 1 0 -5
-11 -8 -24 -6 -22 5 -24 1 -27 -41 -3 -32 0 -46 8 -46 9 0 13 -17 13 -50 0
-47 -11 -63 -25 -40 -4 6 -10 8 -15 5 -26 -16 -39 81 -21 159 14 57 73 114
128 122 l43 6 0 1630 c0 1771 3 1670 -55 1696 -40 18 -1721 16 -1754 -2z
m1529 -27 c0 -5 6 -7 13 -3 6 4 4 -2 -5 -12 -18 -18 -18 -18 -35 0 -10 10 -12
16 -5 12 6 -4 12 -2 12 3 0 6 5 11 10 11 6 0 10 -5 10 -11z m-80 -21 c0 -16
-3 -19 -11 -11 -6 6 -8 16 -5 22 11 17 16 13 16 -11z m176 -15 c-11 -11 -19 6
-11 24 8 17 8 17 12 0 3 -10 2 -21 -1 -24z m91 21 c5 -14 -45 -25 -53 -13 -9
15 7 30 29 27 11 -2 22 -8 24 -14z m21 -186 l3 -58 -61 0 -60 0 0 60 0 61 58
-3 57 -3 3 -57z m-1688 27 c-7 -8 -9 -24 -5 -37 7 -22 6 -22 -11 -6 -17 17
-17 18 1 38 21 23 34 28 15 5z m1467 3 c16 -20 22 -67 9 -62 -7 3 -12 17 -11
32 0 20 -5 27 -20 27 -26 0 -32 -33 -8 -51 17 -14 16 -14 -4 -4 -25 12 -30 39
-11 58 15 15 33 15 45 0z m-987 -255 c0 -29 -12 -63 -21 -63 -10 0 -12 63 -2
73 12 12 23 7 23 -10z m818 -18 c-1 -21 -6 -31 -11 -26 -9 9 -2 61 9 61 2 0 4
-16 2 -35z m69 -22 c-3 -10 -5 -2 -5 17 0 19 2 27 5 18 2 -10 2 -26 0 -35z
m-524 -290 c-7 -2 -19 -2 -25 0 -7 3 -2 5 12 5 14 0 19 -2 13 -5z m3 -115 c16
-12 31 -23 34 -26 5 -4 -32 -35 -62 -53 -16 -9 -18 -4 -18 46 0 30 4 55 9 55
4 0 21 -10 37 -22z m-115 -135 c13 -16 12 -17 -3 -4 -10 7 -18 15 -18 17 0 8
8 3 21 -13z m219 13 c0 -2 -8 -10 -17 -17 -16 -13 -17 -12 -4 4 13 16 21 21
21 13z m195 -36 c3 -5 1 -10 -4 -10 -6 0 -11 5 -11 10 0 6 2 10 4 10 3 0 8 -4
11 -10z m-34 -33 c-10 -9 -11 -8 -5 6 3 10 9 15 12 12 3 -3 0 -11 -7 -18z m29
-21 c0 -3 -4 -8 -10 -11 -5 -3 -10 -1 -10 4 0 6 5 11 10 11 6 0 10 -2 10 -4z
m286 -21 c-26 -19 -42 -19 -26 0 7 8 20 15 29 15 13 -1 13 -3 -3 -15z m-792
-57 c9 -12 16 -32 16 -43 1 -17 2 -18 13 -5 12 16 47 16 47 0 0 -4 -13 -13
-30 -19 -34 -11 -34 -10 -20 -45 5 -14 7 -26 5 -26 -9 0 -45 80 -45 100 0 21
-16 26 -40 11 -19 -12 -31 -4 -23 15 5 14 35 31 55 33 4 1 14 -9 22 -21z m356
7 c17 -21 -19 -69 -38 -49 -16 17 -15 51 1 57 20 9 24 8 37 -8z m227 7 c6 -4
-13 -7 -42 -7 -29 0 -48 3 -42 7 7 4 26 8 42 8 17 0 35 -4 42 -8z m188 -24
c-7 -32 -45 -53 -45 -24 0 8 10 22 22 30 28 20 28 20 23 -6z m-522 -8 c-3 -11
-9 -20 -14 -20 -14 0 -11 28 4 33 6 3 13 6 14 6 0 1 -1 -8 -4 -19z m467 -59
c0 -6 -5 -13 -10 -16 -6 -4 -8 -11 -5 -16 4 -5 2 -9 -3 -9 -11 0 -23 36 -14
44 9 10 32 7 32 -3z m-898 -13 c-9 -9 -15 -9 -24 0 -9 9 -7 12 12 12 19 0 21
-3 12 -12z m320 -98 c-6 -15 -11 -19 -16 -12 -10 17 4 56 15 45 6 -6 6 -19 1
-33z m868 30 c0 -5 -2 -10 -4 -10 -3 0 -8 5 -11 10 -3 6 -1 10 4 10 6 0 11 -4
11 -10z m-1125 -10 c3 -5 2 -10 -4 -10 -5 0 -13 5 -16 10 -3 6 -2 10 4 10 5 0
13 -4 16 -10z m210 -50 c-6 -9 -9 -9 -16 1 -10 17 0 34 13 21 6 -6 7 -16 3
-22z m-709 -196 l7 -27 14 27 c20 37 37 28 41 -22 3 -44 -13 -59 -21 -19 l-4
22 -8 -22 c-4 -13 -11 -23 -16 -23 -6 0 -14 10 -19 23 l-9 22 0 -22 c-2 -44
-21 -23 -21 22 0 51 25 64 36 19z m229 16 c3 -5 1 -10 -4 -10 -6 0 -11 5 -11
10 0 6 2 10 4 10 3 0 8 -4 11 -10z m154 -17 l20 -28 1 28 c0 16 4 26 10 22 6
-3 10 -24 10 -46 0 -47 -22 -53 -44 -11 l-15 27 -1 -27 c0 -16 -4 -28 -10 -28
-5 0 -10 20 -10 45 0 52 10 56 39 18z m-254 -33 c0 -20 -5 -25 -25 -25 -20 0
-26 6 -28 28 -3 26 -1 28 25 25 22 -2 28 -8 28 -28z m36 8 l0 -23 11 23 c16
33 29 27 17 -8 -10 -26 -39 -43 -39 -22 0 4 -3 17 -6 30 -4 13 -2 22 5 22 6 0
11 -10 12 -22z m69 10 c0 -10 2 -10 9 0 13 22 56 11 59 -16 4 -27 -23 -40 -49
-23 -12 7 -19 7 -19 1 0 -5 -4 -10 -10 -10 -5 0 -10 14 -10 30 0 17 5 30 10
30 6 0 10 -6 10 -12z m258 -20 c3 -25 0 -28 -27 -28 -27 0 -30 3 -29 31 1 26
4 30 27 27 20 -2 27 -9 29 -30z m110 0 c2 -16 -1 -28 -7 -28 -6 0 -11 9 -11
19 0 11 -4 23 -10 26 -6 4 -10 -5 -10 -19 0 -14 -4 -26 -10 -26 -5 0 -10 9
-10 19 0 11 -4 23 -10 26 -6 4 -10 -5 -10 -19 0 -14 -4 -26 -10 -26 -5 0 -10
14 -10 31 0 30 1 30 48 27 43 -3 47 -5 50 -30z m67 2 c0 -18 -6 -26 -23 -28
-24 -4 -38 18 -28 44 3 9 15 14 28 12 17 -2 23 -10 23 -28z m-600 -150 c3 -6
-1 -7 -9 -4 -18 7 -21 14 -7 14 6 0 13 -4 16 -10z m122 -22 c-3 -7 -5 -2 -5
12 0 14 2 19 5 13 2 -7 2 -19 0 -25z m166 25 c-7 -2 -13 -12 -13 -20 0 -9 -3
-14 -6 -10 -10 10 4 37 18 36 10 0 10 -2 1 -6z m-73 -27 c0 -2 -9 -6 -20 -9
-11 -3 -18 -1 -14 4 5 9 34 13 34 5z m1390 -236 l0 -90 -860 0 -860 0 0 90 0
90 860 0 860 0 0 -90z m-118 -309 c8 11 9 11 6 1 -4 -16 -22 -18 -24 -2 -2 7
-1 6 3 -1 4 -8 8 -7 15 2z m-514 -413 c-3 -7 -12 -14 -21 -16 -12 -2 -15 1
-11 12 7 19 38 22 32 4z m-818 -13 c0 -8 6 -15 13 -16 10 0 10 -2 0 -6 -7 -2
-13 -11 -13 -19 0 -8 -4 -14 -10 -14 -5 0 -10 7 -10 15 0 8 -6 15 -12 16 -10
0 -10 2 0 6 6 2 12 11 12 19 0 8 5 14 10 14 6 0 10 -7 10 -15z m1193 -5 c5
-21 -7 -35 -22 -26 -10 7 -3 46 9 46 4 0 10 -9 13 -20z m-749 -6 c3 -7 -6 -26
-19 -41 l-24 -28 -27 27 c-15 15 -24 33 -21 41 7 20 83 21 91 1z m321 -3 c-5
-9 34 -37 45 -32 2 1 6 -2 8 -8 2 -6 -3 -11 -12 -11 -9 0 -16 4 -16 10 0 5
-11 12 -25 16 -27 7 -35 34 -9 34 8 0 13 -4 9 -9z m415 -41 c16 0 31 6 33 13
3 7 6 4 6 -6 1 -15 -6 -18 -36 -15 -20 2 -38 9 -39 16 -1 7 0 8 3 2 2 -5 17
-10 33 -10z m-1446 -392 c5 -10 7 -10 12 0 8 18 24 15 24 -5 0 -15 2 -15 9 -4
8 12 12 12 25 2 11 -9 16 -10 16 -2 0 6 4 11 9 11 5 0 7 -8 4 -18 -3 -14 -14
-19 -39 -19 -19 0 -34 5 -34 11 0 6 -4 5 -9 -3 -6 -10 -10 -10 -16 -1 -6 9
-10 9 -16 -1 -6 -10 -9 -6 -9 14 0 28 14 37 24 15z m173 -25 c-3 -10 -5 -4 -5
12 0 17 2 24 5 18 2 -7 2 -21 0 -30z m43 18 c12 -18 15 -18 25 -4 14 19 37 9
29 -12 -4 -9 -19 -13 -45 -12 -34 1 -38 4 -37 24 3 28 9 29 28 4z m160 7 l35
1 -25 -15 c-23 -14 -23 -14 -2 -9 13 4 22 2 22 -4 0 -6 -13 -11 -30 -11 -22 0
-30 5 -30 18 -1 16 -1 16 -14 0 -19 -25 -36 -22 -36 6 0 21 4 24 23 19 12 -3
38 -6 57 -5z m-232 -21 c2 -10 -3 -17 -12 -17 -18 0 -29 16 -21 31 9 14 29 6
33 -14z m867 -437 l0 -355 -54 -3 -54 -3 6 33 c3 18 9 47 12 63 5 22 0 39 -17
65 -21 31 -23 39 -12 65 12 30 5 60 -21 95 -12 16 -13 65 -2 77 13 13 7 31
-12 36 -35 9 -79 -67 -47 -79 9 -3 16 -10 16 -15 0 -5 -9 -4 -19 3 -15 9 -23
9 -35 -1 -27 -22 -20 -44 11 -38 18 3 31 0 40 -11 16 -22 17 -37 1 -25 -25 20
-64 23 -86 7 -12 -8 -22 -11 -22 -5 0 5 5 13 10 16 17 11 12 90 -8 108 -25 23
-36 11 -55 -58 -16 -59 -13 -135 9 -252 3 -18 3 -44 0 -58 -6 -23 -10 -25 -71
-25 -53 0 -66 3 -75 19 -15 30 -14 673 2 689 9 9 73 12 248 10 l235 -3 0 -355z
m127 313 c2 -24 8 -37 16 -35 6 1 12 -7 12 -18 0 -11 1 -20 3 -20 1 0 17 4 36
10 32 9 33 8 28 -16 -2 -14 -1 -40 3 -57 10 -45 3 -59 -20 -45 -14 9 -21 8
-34 -5 -9 -9 -24 -13 -32 -10 -14 5 -14 3 -3 -16 8 -12 22 -24 31 -27 27 -8
21 -25 -7 -20 -13 3 -27 1 -30 -3 -7 -13 -55 0 -55 14 0 7 6 15 13 18 9 3 9 7
0 19 -13 15 -13 74 0 94 3 6 -3 20 -13 32 -14 14 -20 35 -20 65 0 51 4 57 41
57 25 0 28 -4 31 -37z m-1015 -8 c0 -8 -4 -15 -8 -15 -11 0 -20 16 -12 24 11
11 20 7 20 -9z m83 5 c0 -5 -4 -10 -10 -10 -5 0 -10 5 -10 10 0 6 5 10 10 10
6 0 10 -4 10 -10z m-91 -37 c2 -2 -8 -3 -22 -3 -20 0 -25 4 -21 15 5 13 9 13
23 3 9 -7 18 -14 20 -15z m156 -14 c4 -6 13 -8 21 -5 8 3 14 1 14 -5 0 -5 10
-14 23 -19 16 -6 17 -9 5 -9 -26 -1 -29 -16 -8 -41 11 -12 17 -27 14 -31 -3
-5 -1 -9 4 -9 4 0 16 -16 25 -36 13 -26 15 -40 7 -55 -6 -11 -7 -25 -3 -32 11
-18 12 -36 2 -43 -5 -3 -6 -16 -3 -30 5 -20 3 -23 -12 -17 -12 4 -15 3 -10 -5
4 -7 0 -19 -8 -28 -15 -14 -16 -13 -16 10 0 14 6 26 13 26 7 0 4 7 -7 15 -11
8 -16 15 -12 15 4 0 4 5 0 11 -4 8 -9 7 -15 -2 -6 -10 -9 -8 -9 8 0 12 -6 24
-12 26 -8 4 -7 6 4 6 9 1 19 -5 21 -11 6 -16 1 34 -8 85 -5 27 -12 37 -26 37
-11 0 -19 -7 -19 -15 0 -9 -8 -14 -22 -12 -18 1 -23 -4 -25 -23 l-3 -25 11 25
c10 24 11 24 25 6 8 -11 14 -24 14 -29 0 -4 5 -5 10 -2 6 3 10 -1 10 -10 0
-13 -4 -14 -20 -5 -11 6 -18 15 -15 21 4 5 2 9 -4 9 -5 0 -12 -8 -15 -18 -9
-28 -37 -24 -30 5 3 12 7 34 8 48 1 19 5 23 19 19 16 -5 17 -3 8 15 -8 14 -17
18 -29 14 -21 -9 -42 -29 -42 -41 0 -6 6 -13 13 -16 6 -3 -1 -4 -18 -3 -16 1
-31 8 -31 15 -3 25 -5 27 -14 12 -6 -9 -5 -17 2 -21 7 -5 4 -17 -8 -38 -21
-35 -20 -36 24 -46 22 -4 32 -3 32 5 0 7 -7 10 -15 7 -24 -10 -26 9 -4 34 l21
24 -6 -22 c-4 -13 -3 -23 2 -23 5 0 15 -11 22 -25 7 -14 15 -23 18 -21 2 3 10
0 16 -6 10 -9 8 -16 -7 -31 -10 -10 -21 -17 -23 -14 -3 3 2 12 11 21 15 14 15
16 1 16 -9 0 -16 5 -16 10 0 6 -8 10 -17 10 -15 0 -15 -2 -4 -9 11 -7 4 -14
-26 -29 -26 -14 -44 -17 -54 -11 -12 8 -12 10 1 19 10 6 11 13 5 18 -9 6 -12
22 -15 96 -1 11 6 24 15 29 10 5 14 16 10 27 -4 12 0 22 11 28 10 6 15 16 11
26 -4 9 -1 16 4 16 6 0 9 9 6 20 -6 24 15 43 45 38 23 -3 24 -9 13 -59 -5 -20
-2 -27 17 -36 18 -8 26 -7 36 4 7 7 17 11 23 8 5 -4 9 1 9 10 0 9 -4 13 -10
10 -6 -3 -7 1 -4 10 4 8 1 22 -6 30 -12 14 -6 35 10 35 5 0 12 -5 15 -11z
m1035 -74 c-7 -9 -15 -13 -18 -10 -3 2 1 11 8 20 7 9 15 13 18 10 3 -2 -1 -11
-8 -20z m420 -49 c0 -2 -7 -6 -15 -10 -8 -3 -15 -1 -15 4 0 6 7 10 15 10 8 0
15 -2 15 -4z m-1545 -76 c3 -5 1 -10 -4 -10 -6 0 -11 5 -11 10 0 6 2 10 4 10
3 0 8 -4 11 -10z m1535 -20 c0 -6 -24 -10 -52 -9 -30 0 -45 3 -36 7 29 11 88
13 88 2z m-4 -31 c11 -18 -9 -25 -56 -18 l-45 6 50 3 50 3 -45 7 -45 7 42 1
c23 1 45 -3 49 -9z m-1456 -14 c7 -8 15 -13 19 -11 3 2 6 -7 6 -20 0 -30 -18
-26 -25 6 -3 13 -14 27 -25 31 -15 6 -16 8 -4 8 9 1 22 -6 29 -14z m935 -25
c3 -5 1 -10 -4 -10 -6 0 -11 5 -11 10 0 6 2 10 4 10 3 0 8 -4 11 -10z m282 -6
c-3 -3 -12 -4 -19 -1 -8 3 -5 6 6 6 11 1 17 -2 13 -5z m-1080 -26 c-3 -8 -6
-5 -6 6 -1 11 2 17 5 13 3 -3 4 -12 1 -19z m-271 -20 c-10 -6 -20 -7 -24 -3
-9 8 20 25 31 18 5 -3 2 -10 -7 -15z m1292 -1 c7 0 12 -15 12 -39 0 -44 -14
-49 -51 -19 -19 15 -21 22 -12 32 6 6 9 18 5 27 -4 12 -1 14 14 8 10 -5 25 -9
32 -9z m-1178 -8 c0 -6 -6 -9 -12 -6 -7 2 -22 0 -33 -6 -18 -9 -19 -9 -6 6 15
19 51 23 51 6z m47 -11 c-3 -8 -6 -5 -6 6 -1 11 2 17 5 13 3 -3 4 -12 1 -19z
m109 -10 c-10 -6 -20 -7 -24 -3 -9 8 20 25 31 18 5 -3 2 -10 -7 -15z m324 -8
c0 -5 -5 -10 -11 -10 -5 0 -7 5 -4 10 3 6 8 10 11 10 2 0 4 -4 4 -10z m115
-59 c-3 -6 -11 -11 -17 -11 -6 0 -6 6 2 15 14 17 26 13 15 -4z m495 -12 c0 -5
-4 -9 -10 -9 -5 0 -10 7 -10 16 0 8 5 12 10 9 6 -3 10 -10 10 -16z m113 2 c9
-9 7 -11 -8 -8 -11 1 -26 7 -34 11 -9 6 -12 5 -8 0 7 -12 -9 -41 -18 -32 -4 4
-4 16 0 27 7 22 47 23 68 2z m-586 -33 c-3 -8 -6 -5 -6 6 -1 11 2 17 5 13 3
-3 4 -12 1 -19z m478 -58 c-3 -5 -12 -7 -20 -3 -21 7 -19 13 6 13 11 0 18 -4
14 -10z m-42 -67 c-21 -16 -22 -14 -16 20 5 25 6 26 19 10 11 -15 11 -20 -3
-30z"/>
<path d="M7955 2550 c-7 -12 2 -30 16 -30 5 0 9 9 9 20 0 21 -15 27 -25 10z"/>
<path d="M8520 2125 l0 -35 25 16 c30 19 30 23 8 40 -27 21 -33 17 -33 -21z"/>
<path d="M8621 2123 c1 -21 3 -30 6 -20 2 9 13 17 24 17 28 0 20 34 -9 38 -20
3 -22 -1 -21 -35z m39 17 c0 -5 -7 -10 -15 -10 -8 0 -15 5 -15 10 0 6 7 10 15
10 8 0 15 -4 15 -10z"/>
<path d="M8683 2125 c0 -22 2 -30 4 -17 2 12 2 30 0 40 -3 9 -5 -1 -4 -23z"/>
<path d="M8710 2130 c10 -6 11 -10 3 -10 -7 0 -13 -7 -13 -15 0 -8 5 -15 11
-15 5 0 7 6 3 13 -5 8 -2 8 9 -2 15 -12 17 -11 17 10 1 21 2 22 11 6 5 -9 7
-22 4 -27 -3 -6 -2 -10 3 -10 6 0 15 14 21 31 9 27 9 30 -4 19 -10 -9 -15 -9
-15 -1 0 6 -15 11 -32 11 -25 0 -29 -3 -18 -10z"/>
<path d="M8456 1382 c-8 -8 14 -42 27 -42 18 0 35 13 39 29 2 10 -7 15 -29 17
-18 1 -34 -1 -37 -4z"/>
<path d="M8437 733 c-3 -5 -1 -26 3 -48 l8 -40 -1 47 c-2 50 -3 53 -10 41z"/>
<path d="M8532 710 c0 -14 2 -19 5 -12 2 6 2 18 0 25 -3 6 -5 1 -5 -13z"/>
<path d="M8662 700 c0 -14 2 -19 5 -12 2 6 2 18 0 25 -3 6 -5 1 -5 -13z"/>
<path d="M8556 699 c6 -10 44 -7 44 3 0 4 -11 7 -24 6 -14 -1 -23 -6 -20 -9z"/>
<path d="M8695 697 c-4 -10 -5 -21 -1 -24 10 -10 18 4 13 24 -4 17 -4 17 -12
0z"/>
<path d="M8721 700 c0 -8 4 -24 9 -35 5 -13 9 -14 9 -5 0 8 -4 24 -9 35 -5 13
-9 14 -9 5z"/>
<path d="M8480 684 c0 -8 5 -12 10 -9 6 4 8 11 5 16 -9 14 -15 11 -15 -7z"/>
<path d="M8630 690 c0 -5 5 -10 10 -10 6 0 10 5 10 10 0 6 -4 10 -10 10 -5 0
-10 -4 -10 -10z"/>
<path d="M8530 636 c0 -20 -5 -27 -17 -25 -39 3 -44 0 -31 -21 7 -10 14 -17
17 -15 2 3 10 0 16 -5 10 -8 14 1 20 36 3 25 4 48 1 52 -3 3 -6 -7 -6 -22z"/>
<path d="M8580 645 c0 -20 13 -25 27 -10 9 10 8 14 -8 18 -12 3 -19 0 -19 -8z"/>
<path d="M8640 643 c0 -5 5 -15 10 -23 8 -12 10 -11 10 8 0 12 -4 22 -10 22
-5 0 -10 -3 -10 -7z"/>
<path d="M8681 594 c0 -11 3 -14 6 -6 3 7 2 16 -1 19 -3 4 -6 -2 -5 -13z"/>
<path d="M9010 685 c0 -9 6 -12 15 -9 8 4 15 10 15 15 0 5 -7 9 -15 9 -8 0
-15 -7 -15 -15z"/>
<path d="M8165 540 c-3 -5 -1 -10 4 -10 6 0 11 5 11 10 0 6 -2 10 -4 10 -3 0
-8 -4 -11 -10z"/>
<path d="M8150 504 c0 -8 5 -12 10 -9 6 3 10 10 10 16 0 5 -4 9 -10 9 -5 0
-10 -7 -10 -16z"/>
<path d="M7936 465 c-3 -9 0 -15 9 -15 8 0 15 7 15 15 0 8 -4 15 -9 15 -5 0
-11 -7 -15 -15z"/>
<path d="M8150 472 c0 -12 28 -48 33 -42 8 8 -11 50 -23 50 -5 0 -10 -4 -10
-8z"/>
<path d="M860 1180 c0 -5 7 -10 16 -10 8 0 12 5 9 10 -3 6 -10 10 -16 10 -5 0
-9 -4 -9 -10z"/>
<path d="M1262 1170 c0 -14 2 -19 5 -12 2 6 2 18 0 25 -3 6 -5 1 -5 -13z"/>
<path d="M5960 1183 c0 -9 34 -32 48 -33 23 0 12 16 -18 27 -16 6 -30 9 -30 6z"/>
<path d="M916 1154 c-3 -9 -2 -23 4 -32 7 -14 9 -10 10 16 0 35 -5 41 -14 16z"/>
<path d="M1240 1141 c0 -6 4 -13 10 -16 6 -3 7 1 4 9 -7 18 -14 21 -14 7z"/>
<path d="M4142 1105 c0 -16 2 -22 5 -12 2 9 2 23 0 30 -3 6 -5 -1 -5 -18z"/>
<path d="M1015 1100 c-3 -5 3 -10 14 -10 12 0 21 5 21 10 0 6 -6 10 -14 10 -8
0 -18 -4 -21 -10z"/>
<path d="M4016 1078 c-13 -41 -24 -103 -20 -107 11 -12 26 21 31 68 4 46 -2
69 -11 39z"/>
<path d="M4132 1040 c0 -14 2 -19 5 -12 2 6 2 18 0 25 -3 6 -5 1 -5 -13z"/>
<path d="M5805 1013 c5 -18 2 -23 -12 -23 -31 0 -48 -16 -35 -33 10 -12 7 -14
-22 -11 -29 2 -34 -1 -29 -14 3 -10 17 -27 32 -39 22 -19 23 -23 8 -23 -10 0
-27 5 -38 10 -13 7 -19 7 -19 0 0 -5 -5 -10 -11 -10 -18 0 -40 28 -37 47 4 25
-28 28 -35 3 -3 -13 2 -25 14 -34 18 -12 18 -15 3 -44 -9 -19 -23 -32 -35 -32
-12 0 -19 -7 -19 -20 0 -16 7 -20 35 -20 28 0 37 5 45 24 13 36 30 42 30 10 0
-21 4 -25 20 -21 11 3 20 1 20 -4 0 -16 29 -10 50 11 12 12 25 18 30 15 4 -3
10 0 12 7 2 6 10 8 16 4 8 -5 9 -13 3 -25 -8 -15 -4 -17 35 -18 43 -2 44 -1
23 16 -19 15 -20 18 -5 30 14 11 16 11 16 -3 0 -19 21 -21 38 -4 8 8 10 5 6
-15 -5 -30 12 -36 35 -14 11 10 13 10 7 0 -8 -15 3 -17 24 -3 12 7 12 12 2 22
-19 19 -15 27 25 64 20 19 31 34 23 34 -7 0 -24 -9 -36 -21 l-22 -21 -11 20
c-6 11 -8 28 -5 36 5 12 -3 19 -25 27 -25 9 -29 14 -20 25 15 18 -1 17 -25 -1
-15 -12 -18 -23 -14 -62 3 -26 4 -40 1 -31 -2 9 -15 24 -29 33 -28 18 -48 9
-65 -30 -7 -15 -8 -11 -4 16 4 25 1 40 -10 49 -8 7 -15 18 -15 24 0 6 5 4 10
-4 5 -8 10 -11 10 -6 0 5 8 2 18 -6 9 -8 22 -14 27 -14 15 1 69 45 63 51 -3 3
-13 -4 -23 -15 -10 -11 -25 -20 -34 -20 -10 0 -12 3 -6 8 15 10 12 37 -3 37
-8 0 -20 9 -29 20 -15 20 -15 20 -8 -2z m72 -130 c-4 -3 -2 -12 4 -20 6 -7 9
-14 5 -14 -3 -1 -12 -2 -18 -3 -7 -1 -12 -8 -10 -15 1 -7 -3 -11 -10 -9 -16 6
-23 48 -8 48 6 0 8 5 5 10 -3 6 4 10 16 10 12 0 19 -3 16 -7z m-161 -52 c-1
-31 -16 -33 -16 -2 0 15 8 31 15 31 1 0 2 -13 1 -29z m274 3 c0 -18 -14 -18
-29 0 -9 11 -9 15 1 19 17 6 28 -1 28 -19z m-180 -5 c0 -14 -17 -10 -23 5 -4
10 -1 13 9 9 7 -3 14 -9 14 -14z m-50 -4 c0 -8 -7 -15 -15 -15 -8 0 -15 7 -15
15 0 8 7 15 15 15 8 0 15 -7 15 -15z"/>
<path d="M6617 864 c-8 -8 1 -24 14 -24 5 0 9 7 9 15 0 15 -12 20 -23 9z"/>
<path d="M3625 840 c-3 -5 -1 -10 4 -10 6 0 11 5 11 10 0 6 -2 10 -4 10 -3 0
-8 -4 -11 -10z"/>
<path d="M3150 830 c-12 -8 -11 -10 5 -9 11 1 31 5 45 9 24 8 24 8 -5 9 -16 0
-37 -4 -45 -9z"/>
<path d="M6056 824 c-9 -24 -7 -34 7 -34 19 0 36 20 30 36 -7 19 -29 18 -37
-2z m24 -4 c0 -5 -5 -10 -11 -10 -5 0 -7 5 -4 10 3 6 8 10 11 10 2 0 4 -4 4
-10z"/>
<path d="M686 793 c-6 -14 -5 -15 5 -6 7 7 10 15 7 18 -3 3 -9 -2 -12 -12z"/>
<path d="M9526 796 c7 -18 43 -27 63 -16 13 7 10 9 -11 10 -16 0 -28 5 -28 10
0 6 -7 10 -15 10 -8 0 -12 -6 -9 -14z"/>
<path d="M2755 790 c-3 -5 -1 -10 4 -10 6 0 11 5 11 10 0 6 -2 10 -4 10 -3 0
-8 -4 -11 -10z"/>
<path d="M9480 770 c0 -5 5 -10 10 -10 6 0 10 5 10 10 0 6 -4 10 -10 10 -5 0
-10 -4 -10 -10z"/>
<path d="M9601 754 c0 -11 3 -14 6 -6 3 7 2 16 -1 19 -3 4 -6 -2 -5 -13z"/>
</g>
</svg>
